<svg id="visual" viewBox="0 0 900 100" width="900" height="100" xmlns="http://www.w3.org/2000/svg" xmlns:xlink="http://www.w3.org/1999/xlink" version="1.1"><rect x="0" y="0" width="900" height="100" fill="#e7e7f0"></rect><path d="M0 14L6.5 13.3C13 12.7 26 11.3 39 10.8C52 10.3 65 10.7 78 10C91 9.3 104 7.7 117.2 7C130.3 6.3 143.7 6.7 156.8 6.8C170 7 183 7 196 5.8C209 4.7 222 2.3 235 4.3C248 6.3 261 12.7 274 14C287 15.3 300 11.7 313 8.8C326 6 339 4 352 4.2C365 4.3 378 6.7 391 8.2C404 9.7 417 10.3 430.2 9.3C443.3 8.3 456.7 5.7 469.8 5.7C483 5.7 496 8.3 509 8.8C522 9.3 535 7.7 548 6.8C561 6 574 6 587 5.8C600 5.7 613 5.3 626 5.5C639 5.7 652 6.3 665 6.8C678 7.3 691 7.7 704 8.2C717 8.7 730 9.3 743.2 9.8C756.3 10.3 769.7 10.7 782.8 11.5C796 12.3 809 13.7 822 13.5C835 13.3 848 11.7 861 10.7C874 9.7 887 9.3 893.5 9.2L900 9L900 101L893.5 101C887 101 874 101 861 101C848 101 835 101 822 101C809 101 796 101 782.8 101C769.7 101 756.3 101 743.2 101C730 101 717 101 704 101C691 101 678 101 665 101C652 101 639 101 626 101C613 101 600 101 587 101C574 101 561 101 548 101C535 101 522 101 509 101C496 101 483 101 469.8 101C456.7 101 443.3 101 430.2 101C417 101 404 101 391 101C378 101 365 101 352 101C339 101 326 101 313 101C300 101 287 101 274 101C261 101 248 101 235 101C222 101 209 101 196 101C183 101 170 101 156.8 101C143.7 101 130.3 101 117.2 101C104 101 91 101 78 101C65 101 52 101 39 101C26 101 13 101 6.5 101L0 101Z" fill="#e7e7f0"></path><path d="M0 27L6.5 27.2C13 27.3 26 27.7 39 26.5C52 25.3 65 22.7 78 22.2C91 21.7 104 23.3 117.2 24.5C130.3 25.7 143.7 26.3 156.8 26.2C170 26 183 25 196 23.3C209 21.7 222 19.3 235 17.3C248 15.3 261 13.7 274 15.2C287 16.7 300 21.3 313 20.8C326 20.3 339 14.7 352 12.8C365 11 378 13 391 14.8C404 16.7 417 18.3 430.2 20.5C443.3 22.7 456.7 25.3 469.8 24.3C483 23.3 496 18.7 509 15.7C522 12.7 535 11.3 548 13.5C561 15.7 574 21.3 587 23.2C600 25 613 23 626 20.2C639 17.3 652 13.7 665 13C678 12.3 691 14.7 704 16.7C717 18.7 730 20.3 743.2 21C756.3 21.7 769.7 21.3 782.8 19.7C796 18 809 15 822 14.2C835 13.3 848 14.7 861 16.3C874 18 887 20 893.5 21L900 22L900 101L893.5 101C887 101 874 101 861 101C848 101 835 101 822 101C809 101 796 101 782.8 101C769.7 101 756.3 101 743.2 101C730 101 717 101 704 101C691 101 678 101 665 101C652 101 639 101 626 101C613 101 600 101 587 101C574 101 561 101 548 101C535 101 522 101 509 101C496 101 483 101 469.8 101C456.7 101 443.3 101 430.2 101C417 101 404 101 391 101C378 101 365 101 352 101C339 101 326 101 313 101C300 101 287 101 274 101C261 101 248 101 235 101C222 101 209 101 196 101C183 101 170 101 156.8 101C143.7 101 130.3 101 117.2 101C104 101 91 101 78 101C65 101 52 101 39 101C26 101 13 101 6.5 101L0 101Z" fill="#eaeaf2"></path><path d="M0 26L6.5 28.2C13 30.3 26 34.7 39 35.7C52 36.7 65 34.3 78 32.5C91 30.7 104 29.3 117.2 28.7C130.3 28 143.7 28 156.8 27.5C170 27 183 26 196 26.2C209 26.3 222 27.7 235 27.8C248 28 261 27 274 28.2C287 29.3 300 32.7 313 31.8C326 31 339 26 352 23.2C365 20.3 378 19.7 391 19.3C404 19 417 19 430.2 21.5C443.3 24 456.7 29 469.8 31.3C483 33.7 496 33.3 509 32.3C522 31.3 535 29.7 548 28.8C561 28 574 28 587 28.3C600 28.7 613 29.3 626 29.8C639 30.3 652 30.7 665 29C678 27.3 691 23.7 704 21.8C717 20 730 20 743.2 20.3C756.3 20.7 769.7 21.3 782.8 24.3C796 27.3 809 32.7 822 33.7C835 34.7 848 31.3 861 30C874 28.7 887 29.3 893.5 29.7L900 30L900 101L893.5 101C887 101 874 101 861 101C848 101 835 101 822 101C809 101 796 101 782.8 101C769.7 101 756.3 101 743.2 101C730 101 717 101 704 101C691 101 678 101 665 101C652 101 639 101 626 101C613 101 600 101 587 101C574 101 561 101 548 101C535 101 522 101 509 101C496 101 483 101 469.8 101C456.7 101 443.3 101 430.2 101C417 101 404 101 391 101C378 101 365 101 352 101C339 101 326 101 313 101C300 101 287 101 274 101C261 101 248 101 235 101C222 101 209 101 196 101C183 101 170 101 156.8 101C143.7 101 130.3 101 117.2 101C104 101 91 101 78 101C65 101 52 101 39 101C26 101 13 101 6.5 101L0 101Z" fill="#ededf3"></path><path d="M0 35L6.5 34C13 33 26 31 39 32.8C52 34.7 65 40.3 78 41.3C91 42.3 104 38.7 117.2 38.2C130.3 37.7 143.7 40.3 156.8 39.5C170 38.7 183 34.3 196 34.8C209 35.3 222 40.7 235 43.5C248 46.3 261 46.7 274 44.7C287 42.7 300 38.3 313 36C326 33.7 339 33.3 352 33C365 32.7 378 32.3 391 33.2C404 34 417 36 430.2 36.2C443.3 36.3 456.7 34.7 469.8 34.8C483 35 496 37 509 39.2C522 41.3 535 43.7 548 42.2C561 40.7 574 35.3 587 32.8C600 30.3 613 30.7 626 33.2C639 35.7 652 40.3 665 41.8C678 43.3 691 41.7 704 42.2C717 42.7 730 45.3 743.2 44.3C756.3 43.3 769.7 38.7 782.8 35.7C796 32.7 809 31.3 822 32.2C835 33 848 36 861 36.8C874 37.7 887 36.3 893.5 35.7L900 35L900 101L893.5 101C887 101 874 101 861 101C848 101 835 101 822 101C809 101 796 101 782.8 101C769.7 101 756.3 101 743.2 101C730 101 717 101 704 101C691 101 678 101 665 101C652 101 639 101 626 101C613 101 600 101 587 101C574 101 561 101 548 101C535 101 522 101 509 101C496 101 483 101 469.8 101C456.7 101 443.3 101 430.2 101C417 101 404 101 391 101C378 101 365 101 352 101C339 101 326 101 313 101C300 101 287 101 274 101C261 101 248 101 235 101C222 101 209 101 196 101C183 101 170 101 156.8 101C143.7 101 130.3 101 117.2 101C104 101 91 101 78 101C65 101 52 101 39 101C26 101 13 101 6.5 101L0 101Z" fill="#f0f0f5"></path><path d="M0 48L6.5 47.2C13 46.3 26 44.7 39 45.5C52 46.3 65 49.7 78 52C91 54.3 104 55.7 117.2 55.8C130.3 56 143.7 55 156.8 54.3C170 53.7 183 53.3 196 52C209 50.7 222 48.3 235 47.2C248 46 261 46 274 46.3C287 46.7 300 47.3 313 48.2C326 49 339 50 352 50C365 50 378 49 391 47.2C404 45.3 417 42.7 430.2 42.8C443.3 43 456.7 46 469.8 48.8C483 51.7 496 54.3 509 54.3C522 54.3 535 51.7 548 51.7C561 51.7 574 54.3 587 56C600 57.7 613 58.3 626 58C639 57.7 652 56.3 665 54.5C678 52.7 691 50.3 704 49.5C717 48.7 730 49.3 743.2 49.3C756.3 49.3 769.7 48.7 782.8 47.2C796 45.7 809 43.3 822 43C835 42.7 848 44.3 861 45.5C874 46.7 887 47.3 893.5 47.7L900 48L900 101L893.5 101C887 101 874 101 861 101C848 101 835 101 822 101C809 101 796 101 782.8 101C769.7 101 756.3 101 743.2 101C730 101 717 101 704 101C691 101 678 101 665 101C652 101 639 101 626 101C613 101 600 101 587 101C574 101 561 101 548 101C535 101 522 101 509 101C496 101 483 101 469.8 101C456.7 101 443.3 101 430.2 101C417 101 404 101 391 101C378 101 365 101 352 101C339 101 326 101 313 101C300 101 287 101 274 101C261 101 248 101 235 101C222 101 209 101 196 101C183 101 170 101 156.8 101C143.7 101 130.3 101 117.2 101C104 101 91 101 78 101C65 101 52 101 39 101C26 101 13 101 6.5 101L0 101Z" fill="#f3f3f7"></path><path d="M0 58L6.5 57.8C13 57.7 26 57.3 39 58.3C52 59.3 65 61.7 78 60.5C91 59.3 104 54.7 117.2 54C130.3 53.3 143.7 56.7 156.8 59.3C170 62 183 64 196 62.8C209 61.7 222 57.3 235 57.2C248 57 261 61 274 61C287 61 300 57 313 56C326 55 339 57 352 57C365 57 378 55 391 56.3C404 57.7 417 62.3 430.2 62.5C443.3 62.7 456.7 58.3 469.8 55.3C483 52.3 496 50.7 509 51C522 51.3 535 53.7 548 54.5C561 55.3 574 54.7 587 56.3C600 58 613 62 626 64.2C639 66.3 652 66.7 665 66C678 65.3 691 63.7 704 61.5C717 59.3 730 56.7 743.2 56.2C756.3 55.7 769.7 57.3 782.8 59.5C796 61.7 809 64.3 822 64.8C835 65.3 848 63.7 861 62.8C874 62 887 62 893.5 62L900 62L900 101L893.5 101C887 101 874 101 861 101C848 101 835 101 822 101C809 101 796 101 782.8 101C769.7 101 756.3 101 743.2 101C730 101 717 101 704 101C691 101 678 101 665 101C652 101 639 101 626 101C613 101 600 101 587 101C574 101 561 101 548 101C535 101 522 101 509 101C496 101 483 101 469.8 101C456.7 101 443.3 101 430.2 101C417 101 404 101 391 101C378 101 365 101 352 101C339 101 326 101 313 101C300 101 287 101 274 101C261 101 248 101 235 101C222 101 209 101 196 101C183 101 170 101 156.8 101C143.7 101 130.3 101 117.2 101C104 101 91 101 78 101C65 101 52 101 39 101C26 101 13 101 6.5 101L0 101Z" fill="#f6f6f9"></path><path d="M0 59L6.5 59.5C13 60 26 61 39 61.2C52 61.3 65 60.7 78 62C91 63.3 104 66.7 117.2 69.2C130.3 71.7 143.7 73.3 156.8 71.7C170 70 183 65 196 63.2C209 61.3 222 62.7 235 65.7C248 68.7 261 73.3 274 75C287 76.7 300 75.3 313 75.3C326 75.3 339 76.7 352 75C365 73.3 378 68.7 391 65.8C404 63 417 62 430.2 64.2C443.3 66.3 456.7 71.7 469.8 74.2C483 76.7 496 76.3 509 73.5C522 70.7 535 65.3 548 62.5C561 59.7 574 59.3 587 60.3C600 61.3 613 63.7 626 65.8C639 68 652 70 665 69.2C678 68.3 691 64.7 704 63.2C717 61.7 730 62.3 743.2 62C756.3 61.7 769.7 60.3 782.8 63C796 65.7 809 72.3 822 74C835 75.7 848 72.3 861 69.3C874 66.3 887 63.7 893.5 62.3L900 61L900 101L893.5 101C887 101 874 101 861 101C848 101 835 101 822 101C809 101 796 101 782.8 101C769.7 101 756.3 101 743.2 101C730 101 717 101 704 101C691 101 678 101 665 101C652 101 639 101 626 101C613 101 600 101 587 101C574 101 561 101 548 101C535 101 522 101 509 101C496 101 483 101 469.8 101C456.7 101 443.3 101 430.2 101C417 101 404 101 391 101C378 101 365 101 352 101C339 101 326 101 313 101C300 101 287 101 274 101C261 101 248 101 235 101C222 101 209 101 196 101C183 101 170 101 156.8 101C143.7 101 130.3 101 117.2 101C104 101 91 101 78 101C65 101 52 101 39 101C26 101 13 101 6.5 101L0 101Z" fill="#f9f9fb"></path><path d="M0 85L6.5 83.3C13 81.7 26 78.3 39 78C52 77.7 65 80.3 78 81.7C91 83 104 83 117.2 81.2C130.3 79.3 143.7 75.7 156.8 73.8C170 72 183 72 196 74.5C209 77 222 82 235 82C248 82 261 77 274 74.7C287 72.3 300 72.7 313 72.5C326 72.3 339 71.7 352 71.3C365 71 378 71 391 71.7C404 72.3 417 73.7 430.2 76.3C443.3 79 456.7 83 469.8 84.2C483 85.3 496 83.7 509 83.3C522 83 535 84 548 82C561 80 574 75 587 73.7C600 72.3 613 74.7 626 76.5C639 78.3 652 79.7 665 79.7C678 79.7 691 78.3 704 77C717 75.7 730 74.3 743.2 73.2C756.3 72 769.7 71 782.8 72.3C796 73.7 809 77.3 822 79.8C835 82.3 848 83.7 861 83.5C874 83.3 887 81.7 893.5 80.8L900 80L900 101L893.5 101C887 101 874 101 861 101C848 101 835 101 822 101C809 101 796 101 782.8 101C769.7 101 756.3 101 743.2 101C730 101 717 101 704 101C691 101 678 101 665 101C652 101 639 101 626 101C613 101 600 101 587 101C574 101 561 101 548 101C535 101 522 101 509 101C496 101 483 101 469.8 101C456.7 101 443.3 101 430.2 101C417 101 404 101 391 101C378 101 365 101 352 101C339 101 326 101 313 101C300 101 287 101 274 101C261 101 248 101 235 101C222 101 209 101 196 101C183 101 170 101 156.8 101C143.7 101 130.3 101 117.2 101C104 101 91 101 78 101C65 101 52 101 39 101C26 101 13 101 6.5 101L0 101Z" fill="#fcfcfd"></path><path d="M0 85L6.5 85.8C13 86.7 26 88.3 39 87.8C52 87.3 65 84.7 78 84.2C91 83.7 104 85.3 117.2 87C130.3 88.7 143.7 90.3 156.8 89.8C170 89.3 183 86.7 196 87.7C209 88.7 222 93.3 235 94.2C248 95 261 92 274 89.2C287 86.3 300 83.7 313 83.7C326 83.7 339 86.3 352 87.5C365 88.7 378 88.3 391 87C404 85.7 417 83.3 430.2 82.2C443.3 81 456.7 81 469.8 83.8C483 86.7 496 92.3 509 92.3C522 92.3 535 86.7 548 86.2C561 85.7 574 90.3 587 93.2C600 96 613 97 626 94.8C639 92.7 652 87.3 665 85.2C678 83 691 84 704 85.8C717 87.7 730 90.3 743.2 92.2C756.3 94 769.7 95 782.8 95.5C796 96 809 96 822 93.2C835 90.3 848 84.7 861 84.7C874 84.7 887 90.3 893.5 93.2L900 96L900 101L893.5 101C887 101 874 101 861 101C848 101 835 101 822 101C809 101 796 101 782.8 101C769.7 101 756.3 101 743.2 101C730 101 717 101 704 101C691 101 678 101 665 101C652 101 639 101 626 101C613 101 600 101 587 101C574 101 561 101 548 101C535 101 522 101 509 101C496 101 483 101 469.8 101C456.7 101 443.3 101 430.2 101C417 101 404 101 391 101C378 101 365 101 352 101C339 101 326 101 313 101C300 101 287 101 274 101C261 101 248 101 235 101C222 101 209 101 196 101C183 101 170 101 156.8 101C143.7 101 130.3 101 117.2 101C104 101 91 101 78 101C65 101 52 101 39 101C26 101 13 101 6.5 101L0 101Z" fill="#ffffff"></path></svg>