<svg id="visual" viewBox="0 0 1000 100" width="1000" height="100" xmlns="http://www.w3.org/2000/svg" xmlns:xlink="http://www.w3.org/1999/xlink" version="1.1"><rect x="0" y="0" width="1000" height="100" fill="#d3e1de"></rect><path d="M0 52L27.8 51C55.7 50 111.3 48 166.8 47.8C222.3 47.7 277.7 49.3 333.2 50.5C388.7 51.7 444.3 52.3 500 51.5C555.7 50.7 611.3 48.3 666.8 47.7C722.3 47 777.7 48 833.2 48.5C888.7 49 944.3 49 972.2 49L1000 49L1000 101L972.2 101C944.3 101 888.7 101 833.2 101C777.7 101 722.3 101 666.8 101C611.3 101 555.7 101 500 101C444.3 101 388.7 101 333.2 101C277.7 101 222.3 101 166.8 101C111.3 101 55.7 101 27.8 101L0 101Z" fill="#d3e1de"></path><path d="M0 58L27.8 57.5C55.7 57 111.3 56 166.8 56.2C222.3 56.3 277.7 57.7 333.2 57.8C388.7 58 444.3 57 500 57.5C555.7 58 611.3 60 666.8 59.8C722.3 59.7 777.7 57.3 833.2 56.7C888.7 56 944.3 57 972.2 57.5L1000 58L1000 101L972.2 101C944.3 101 888.7 101 833.2 101C777.7 101 722.3 101 666.8 101C611.3 101 555.7 101 500 101C444.3 101 388.7 101 333.2 101C277.7 101 222.3 101 166.8 101C111.3 101 55.7 101 27.8 101L0 101Z" fill="#dee8e6"></path><path d="M0 67L27.8 67.7C55.7 68.3 111.3 69.7 166.8 70.7C222.3 71.7 277.7 72.3 333.2 71.3C388.7 70.3 444.3 67.7 500 66.3C555.7 65 611.3 65 666.8 65.5C722.3 66 777.7 67 833.2 67.5C888.7 68 944.3 68 972.2 68L1000 68L1000 101L972.2 101C944.3 101 888.7 101 833.2 101C777.7 101 722.3 101 666.8 101C611.3 101 555.7 101 500 101C444.3 101 388.7 101 333.2 101C277.7 101 222.3 101 166.8 101C111.3 101 55.7 101 27.8 101L0 101Z" fill="#e9f0ee"></path><path d="M0 78L27.8 78C55.7 78 111.3 78 166.8 77.8C222.3 77.7 277.7 77.3 333.2 77.8C388.7 78.3 444.3 79.7 500 79.5C555.7 79.3 611.3 77.7 666.8 76.8C722.3 76 777.7 76 833.2 76.5C888.7 77 944.3 78 972.2 78.5L1000 79L1000 101L972.2 101C944.3 101 888.7 101 833.2 101C777.7 101 722.3 101 666.8 101C611.3 101 555.7 101 500 101C444.3 101 388.7 101 333.2 101C277.7 101 222.3 101 166.8 101C111.3 101 55.7 101 27.8 101L0 101Z" fill="#f4f7f6"></path><path d="M0 91L27.8 90.7C55.7 90.3 111.3 89.7 166.8 89.3C222.3 89 277.7 89 333.2 89.5C388.7 90 444.3 91 500 91C555.7 91 611.3 90 666.8 89.7C722.3 89.3 777.7 89.7 833.2 90C888.7 90.3 944.3 90.7 972.2 90.8L1000 91L1000 101L972.2 101C944.3 101 888.7 101 833.2 101C777.7 101 722.3 101 666.8 101C611.3 101 555.7 101 500 101C444.3 101 388.7 101 333.2 101C277.7 101 222.3 101 166.8 101C111.3 101 55.7 101 27.8 101L0 101Z" fill="#ffffff"></path></svg>