<svg id="visual" viewBox="0 0 1000 100" width="1000" height="100" xmlns="http://www.w3.org/2000/svg" xmlns:xlink="http://www.w3.org/1999/xlink" version="1.1"><path d="M0 84L18.5 81.8C37 79.7 74 75.3 111 76.7C148 78 185 85 222 89C259 93 296 94 333 88.8C370 83.7 407 72.3 444.2 70.5C481.3 68.7 518.7 76.3 555.8 76.2C593 76 630 68 667 65.5C704 63 741 66 778 66.8C815 67.7 852 66.3 889 66.2C926 66 963 67 981.5 67.5L1000 68L1000 0L981.5 0C963 0 926 0 889 0C852 0 815 0 778 0C741 0 704 0 667 0C630 0 593 0 555.8 0C518.7 0 481.3 0 444.2 0C407 0 370 0 333 0C296 0 259 0 222 0C185 0 148 0 111 0C74 0 37 0 18.5 0L0 0Z" fill="#54ff98"></path><path d="M0 69L18.5 69C37 69 74 69 111 69C148 69 185 69 222 68.8C259 68.7 296 68.3 333 66.8C370 65.3 407 62.7 444.2 64.5C481.3 66.3 518.7 72.7 555.8 73C593 73.3 630 67.7 667 69C704 70.3 741 78.7 778 83.3C815 88 852 89 889 86C926 83 963 76 981.5 72.5L1000 69L1000 0L981.5 0C963 0 926 0 889 0C852 0 815 0 778 0C741 0 704 0 667 0C630 0 593 0 555.8 0C518.7 0 481.3 0 444.2 0C407 0 370 0 333 0C296 0 259 0 222 0C185 0 148 0 111 0C74 0 37 0 18.5 0L0 0Z" fill="#2efeae"></path><path d="M0 75L18.5 75C37 75 74 75 111 70.8C148 66.7 185 58.3 222 56.5C259 54.7 296 59.3 333 63C370 66.7 407 69.3 444.2 66.7C481.3 64 518.7 56 555.8 53.8C593 51.7 630 55.3 667 56.2C704 57 741 55 778 53.3C815 51.7 852 50.3 889 53.3C926 56.3 963 63.7 981.5 67.3L1000 71L1000 0L981.5 0C963 0 926 0 889 0C852 0 815 0 778 0C741 0 704 0 667 0C630 0 593 0 555.8 0C518.7 0 481.3 0 444.2 0C407 0 370 0 333 0C296 0 259 0 222 0C185 0 148 0 111 0C74 0 37 0 18.5 0L0 0Z" fill="#00fbc2"></path><path d="M0 74L18.5 73.3C37 72.7 74 71.3 111 69.3C148 67.3 185 64.7 222 60.3C259 56 296 50 333 49.5C370 49 407 54 444.2 57.3C481.3 60.7 518.7 62.3 555.8 60.5C593 58.7 630 53.3 667 51.5C704 49.7 741 51.3 778 54.2C815 57 852 61 889 61C926 61 963 57 981.5 55L1000 53L1000 0L981.5 0C963 0 926 0 889 0C852 0 815 0 778 0C741 0 704 0 667 0C630 0 593 0 555.8 0C518.7 0 481.3 0 444.2 0C407 0 370 0 333 0C296 0 259 0 222 0C185 0 148 0 111 0C74 0 37 0 18.5 0L0 0Z" fill="#00f9d4"></path><path d="M0 45L18.5 45.3C37 45.7 74 46.3 111 49.7C148 53 185 59 222 59.7C259 60.3 296 55.7 333 52C370 48.3 407 45.7 444.2 46.5C481.3 47.3 518.7 51.7 555.8 53.8C593 56 630 56 667 55C704 54 741 52 778 53C815 54 852 58 889 58.8C926 59.7 963 57.3 981.5 56.2L1000 55L1000 0L981.5 0C963 0 926 0 889 0C852 0 815 0 778 0C741 0 704 0 667 0C630 0 593 0 555.8 0C518.7 0 481.3 0 444.2 0C407 0 370 0 333 0C296 0 259 0 222 0C185 0 148 0 111 0C74 0 37 0 18.5 0L0 0Z" fill="#00f5e2"></path><path d="M0 40L18.5 42C37 44 74 48 111 46.8C148 45.7 185 39.3 222 38.2C259 37 296 41 333 41.3C370 41.7 407 38.3 444.2 38.5C481.3 38.7 518.7 42.3 555.8 42.2C593 42 630 38 667 37.3C704 36.7 741 39.3 778 41.2C815 43 852 44 889 45.8C926 47.7 963 50.3 981.5 51.7L1000 53L1000 0L981.5 0C963 0 926 0 889 0C852 0 815 0 778 0C741 0 704 0 667 0C630 0 593 0 555.8 0C518.7 0 481.3 0 444.2 0C407 0 370 0 333 0C296 0 259 0 222 0C185 0 148 0 111 0C74 0 37 0 18.5 0L0 0Z" fill="#00f1ee"></path><path d="M0 46L18.5 44C37 42 74 38 111 37C148 36 185 38 222 37.5C259 37 296 34 333 34.8C370 35.7 407 40.3 444.2 44C481.3 47.7 518.7 50.3 555.8 47.2C593 44 630 35 667 32.5C704 30 741 34 778 35.2C815 36.3 852 34.7 889 34.7C926 34.7 963 36.3 981.5 37.2L1000 38L1000 0L981.5 0C963 0 926 0 889 0C852 0 815 0 778 0C741 0 704 0 667 0C630 0 593 0 555.8 0C518.7 0 481.3 0 444.2 0C407 0 370 0 333 0C296 0 259 0 222 0C185 0 148 0 111 0C74 0 37 0 18.5 0L0 0Z" fill="#0eedf6"></path><path d="M0 44L18.5 42.5C37 41 74 38 111 37.5C148 37 185 39 222 39.3C259 39.7 296 38.3 333 38.2C370 38 407 39 444.2 39.7C481.3 40.3 518.7 40.7 555.8 39.3C593 38 630 35 667 35.5C704 36 741 40 778 39.7C815 39.3 852 34.7 889 32.8C926 31 963 32 981.5 32.5L1000 33L1000 0L981.5 0C963 0 926 0 889 0C852 0 815 0 778 0C741 0 704 0 667 0C630 0 593 0 555.8 0C518.7 0 481.3 0 444.2 0C407 0 370 0 333 0C296 0 259 0 222 0C185 0 148 0 111 0C74 0 37 0 18.5 0L0 0Z" fill="#2ae8fc"></path><path d="M0 25L18.5 27C37 29 74 33 111 31.8C148 30.7 185 24.3 222 22.3C259 20.3 296 22.7 333 25.7C370 28.7 407 32.3 444.2 32.2C481.3 32 518.7 28 555.8 27.5C593 27 630 30 667 31.5C704 33 741 33 778 31.7C815 30.3 852 27.7 889 25.7C926 23.7 963 22.3 981.5 21.7L1000 21L1000 0L981.5 0C963 0 926 0 889 0C852 0 815 0 778 0C741 0 704 0 667 0C630 0 593 0 555.8 0C518.7 0 481.3 0 444.2 0C407 0 370 0 333 0C296 0 259 0 222 0C185 0 148 0 111 0C74 0 37 0 18.5 0L0 0Z" fill="#41e3ff"></path><path d="M0 14L18.5 15.8C37 17.7 74 21.3 111 23.3C148 25.3 185 25.7 222 24.3C259 23 296 20 333 18.5C370 17 407 17 444.2 19C481.3 21 518.7 25 555.8 24C593 23 630 17 667 14.5C704 12 741 13 778 14C815 15 852 16 889 18.2C926 20.3 963 23.7 981.5 25.3L1000 27L1000 0L981.5 0C963 0 926 0 889 0C852 0 815 0 778 0C741 0 704 0 667 0C630 0 593 0 555.8 0C518.7 0 481.3 0 444.2 0C407 0 370 0 333 0C296 0 259 0 222 0C185 0 148 0 111 0C74 0 37 0 18.5 0L0 0Z" fill="#57deff"></path><path d="M0 15L18.5 15.8C37 16.7 74 18.3 111 18.8C148 19.3 185 18.7 222 17.3C259 16 296 14 333 12.8C370 11.7 407 11.3 444.2 11.7C481.3 12 518.7 13 555.8 13C593 13 630 12 667 11.8C704 11.7 741 12.3 778 12C815 11.7 852 10.3 889 9C926 7.7 963 6.3 981.5 5.7L1000 5L1000 0L981.5 0C963 0 926 0 889 0C852 0 815 0 778 0C741 0 704 0 667 0C630 0 593 0 555.8 0C518.7 0 481.3 0 444.2 0C407 0 370 0 333 0C296 0 259 0 222 0C185 0 148 0 111 0C74 0 37 0 18.5 0L0 0Z" fill="#6ad9ff"></path><path d="M0 10L18.5 8.3C37 6.7 74 3.3 111 2C148 0.7 185 1.3 222 1.3C259 1.3 296 0.7 333 0.8C370 1 407 2 444.2 3.2C481.3 4.3 518.7 5.7 555.8 5.7C593 5.7 630 4.3 667 4.7C704 5 741 7 778 7.8C815 8.7 852 8.3 889 7.3C926 6.3 963 4.7 981.5 3.8L1000 3L1000 0L981.5 0C963 0 926 0 889 0C852 0 815 0 778 0C741 0 704 0 667 0C630 0 593 0 555.8 0C518.7 0 481.3 0 444.2 0C407 0 370 0 333 0C296 0 259 0 222 0C185 0 148 0 111 0C74 0 37 0 18.5 0L0 0Z" fill="#7bd3ff"></path></svg>