<svg id="visual" viewBox="0 0 1000 100" width="1000" height="100" xmlns="http://www.w3.org/2000/svg" xmlns:xlink="http://www.w3.org/1999/xlink" version="1.1"><rect x="0" y="0" width="1000" height="100" fill="#d3e1de"></rect><path d="M0 1L8.3 3.3C16.7 5.7 33.3 10.3 50 14.8C66.7 19.3 83.3 23.7 100 21.3C116.7 19 133.3 10 150 10.3C166.7 10.7 183.3 20.3 200 24.7C216.7 29 233.3 28 250 28.2C266.7 28.3 283.3 29.7 300 26.7C316.7 23.7 333.3 16.3 350 16.5C366.7 16.7 383.3 24.3 400 24.8C416.7 25.3 433.3 18.7 450 14.5C466.7 10.3 483.3 8.7 500 8.5C516.7 8.3 533.3 9.7 550 9.2C566.7 8.7 583.3 6.3 600 9.2C616.7 12 633.3 20 650 23.7C666.7 27.3 683.3 26.7 700 27.3C716.7 28 733.3 30 750 28C766.7 26 783.3 20 800 17C816.7 14 833.3 14 850 14C866.7 14 883.3 14 900 15.7C916.7 17.3 933.3 20.7 950 18.8C966.7 17 983.3 10 991.7 6.5L1000 3L1000 101L991.7 101C983.3 101 966.7 101 950 101C933.3 101 916.7 101 900 101C883.3 101 866.7 101 850 101C833.3 101 816.7 101 800 101C783.3 101 766.7 101 750 101C733.3 101 716.7 101 700 101C683.3 101 666.7 101 650 101C633.3 101 616.7 101 600 101C583.3 101 566.7 101 550 101C533.3 101 516.7 101 500 101C483.3 101 466.7 101 450 101C433.3 101 416.7 101 400 101C383.3 101 366.7 101 350 101C333.3 101 316.7 101 300 101C283.3 101 266.7 101 250 101C233.3 101 216.7 101 200 101C183.3 101 166.7 101 150 101C133.3 101 116.7 101 100 101C83.3 101 66.7 101 50 101C33.3 101 16.7 101 8.3 101L0 101Z" fill="#d3e1de"></path><path d="M0 41L8.3 39.5C16.7 38 33.3 35 50 31.7C66.7 28.3 83.3 24.7 100 22.8C116.7 21 133.3 21 150 22.8C166.7 24.7 183.3 28.3 200 32.2C216.7 36 233.3 40 250 42.2C266.7 44.3 283.3 44.7 300 41.5C316.7 38.3 333.3 31.7 350 28C366.7 24.3 383.3 23.7 400 26C416.7 28.3 433.3 33.7 450 37.3C466.7 41 483.3 43 500 43.8C516.7 44.7 533.3 44.3 550 41.2C566.7 38 583.3 32 600 32C616.7 32 633.3 38 650 37C666.7 36 683.3 28 700 27.5C716.7 27 733.3 34 750 37.8C766.7 41.7 783.3 42.3 800 42.7C816.7 43 833.3 43 850 42C866.7 41 883.3 39 900 39.7C916.7 40.3 933.3 43.7 950 42.5C966.7 41.3 983.3 35.7 991.7 32.8L1000 30L1000 101L991.7 101C983.3 101 966.7 101 950 101C933.3 101 916.7 101 900 101C883.3 101 866.7 101 850 101C833.3 101 816.7 101 800 101C783.3 101 766.7 101 750 101C733.3 101 716.7 101 700 101C683.3 101 666.7 101 650 101C633.3 101 616.7 101 600 101C583.3 101 566.7 101 550 101C533.3 101 516.7 101 500 101C483.3 101 466.7 101 450 101C433.3 101 416.7 101 400 101C383.3 101 366.7 101 350 101C333.3 101 316.7 101 300 101C283.3 101 266.7 101 250 101C233.3 101 216.7 101 200 101C183.3 101 166.7 101 150 101C133.3 101 116.7 101 100 101C83.3 101 66.7 101 50 101C33.3 101 16.7 101 8.3 101L0 101Z" fill="#dee8e6"></path><path d="M0 61L8.3 56.7C16.7 52.3 33.3 43.7 50 41C66.7 38.3 83.3 41.7 100 44.2C116.7 46.7 133.3 48.3 150 49.3C166.7 50.3 183.3 50.7 200 48C216.7 45.3 233.3 39.7 250 41.8C266.7 44 283.3 54 300 59.3C316.7 64.7 333.3 65.3 350 64.5C366.7 63.7 383.3 61.3 400 58.7C416.7 56 433.3 53 450 49.8C466.7 46.7 483.3 43.3 500 45.8C516.7 48.3 533.3 56.7 550 56.7C566.7 56.7 583.3 48.3 600 44.7C616.7 41 633.3 42 650 41.7C666.7 41.3 683.3 39.7 700 39.8C716.7 40 733.3 42 750 42.8C766.7 43.7 783.3 43.3 800 43.8C816.7 44.3 833.3 45.7 850 48.2C866.7 50.7 883.3 54.3 900 54.2C916.7 54 933.3 50 950 49C966.7 48 983.3 50 991.7 51L1000 52L1000 101L991.7 101C983.3 101 966.7 101 950 101C933.3 101 916.7 101 900 101C883.3 101 866.7 101 850 101C833.3 101 816.7 101 800 101C783.3 101 766.7 101 750 101C733.3 101 716.7 101 700 101C683.3 101 666.7 101 650 101C633.3 101 616.7 101 600 101C583.3 101 566.7 101 550 101C533.3 101 516.7 101 500 101C483.3 101 466.7 101 450 101C433.3 101 416.7 101 400 101C383.3 101 366.7 101 350 101C333.3 101 316.7 101 300 101C283.3 101 266.7 101 250 101C233.3 101 216.7 101 200 101C183.3 101 166.7 101 150 101C133.3 101 116.7 101 100 101C83.3 101 66.7 101 50 101C33.3 101 16.7 101 8.3 101L0 101Z" fill="#e9f0ee"></path><path d="M0 50L8.3 51.8C16.7 53.7 33.3 57.3 50 57.8C66.7 58.3 83.3 55.7 100 57.5C116.7 59.3 133.3 65.7 150 65C166.7 64.3 183.3 56.7 200 54.3C216.7 52 233.3 55 250 60C266.7 65 283.3 72 300 72.2C316.7 72.3 333.3 65.7 350 61.7C366.7 57.7 383.3 56.3 400 59.5C416.7 62.7 433.3 70.3 450 73.5C466.7 76.7 483.3 75.3 500 76C516.7 76.7 533.3 79.3 550 76.8C566.7 74.3 583.3 66.7 600 66C616.7 65.3 633.3 71.7 650 74.2C666.7 76.7 683.3 75.3 700 75.8C716.7 76.3 733.3 78.7 750 75.3C766.7 72 783.3 63 800 60.2C816.7 57.3 833.3 60.7 850 63.5C866.7 66.3 883.3 68.7 900 69.8C916.7 71 933.3 71 950 70C966.7 69 983.3 67 991.7 66L1000 65L1000 101L991.7 101C983.3 101 966.7 101 950 101C933.3 101 916.7 101 900 101C883.3 101 866.7 101 850 101C833.3 101 816.7 101 800 101C783.3 101 766.7 101 750 101C733.3 101 716.7 101 700 101C683.3 101 666.7 101 650 101C633.3 101 616.7 101 600 101C583.3 101 566.7 101 550 101C533.3 101 516.7 101 500 101C483.3 101 466.7 101 450 101C433.3 101 416.7 101 400 101C383.3 101 366.7 101 350 101C333.3 101 316.7 101 300 101C283.3 101 266.7 101 250 101C233.3 101 216.7 101 200 101C183.3 101 166.7 101 150 101C133.3 101 116.7 101 100 101C83.3 101 66.7 101 50 101C33.3 101 16.7 101 8.3 101L0 101Z" fill="#f4f7f6"></path><path d="M0 73L8.3 74.2C16.7 75.3 33.3 77.7 50 76.5C66.7 75.3 83.3 70.7 100 68.5C116.7 66.3 133.3 66.7 150 71.2C166.7 75.7 183.3 84.3 200 85.2C216.7 86 233.3 79 250 78.7C266.7 78.3 283.3 84.7 300 84C316.7 83.3 333.3 75.7 350 75.5C366.7 75.3 383.3 82.7 400 86.3C416.7 90 433.3 90 450 88.3C466.7 86.7 483.3 83.3 500 80.2C516.7 77 533.3 74 550 73C566.7 72 583.3 73 600 74.2C616.7 75.3 633.3 76.7 650 77C666.7 77.3 683.3 76.7 700 80C716.7 83.3 733.3 90.7 750 91.3C766.7 92 783.3 86 800 84.3C816.7 82.7 833.3 85.3 850 83C866.7 80.7 883.3 73.3 900 71C916.7 68.7 933.3 71.3 950 74.5C966.7 77.7 983.3 81.3 991.7 83.2L1000 85L1000 101L991.7 101C983.3 101 966.7 101 950 101C933.3 101 916.7 101 900 101C883.3 101 866.7 101 850 101C833.3 101 816.7 101 800 101C783.3 101 766.7 101 750 101C733.3 101 716.7 101 700 101C683.3 101 666.7 101 650 101C633.3 101 616.7 101 600 101C583.3 101 566.7 101 550 101C533.3 101 516.7 101 500 101C483.3 101 466.7 101 450 101C433.3 101 416.7 101 400 101C383.3 101 366.7 101 350 101C333.3 101 316.7 101 300 101C283.3 101 266.7 101 250 101C233.3 101 216.7 101 200 101C183.3 101 166.7 101 150 101C133.3 101 116.7 101 100 101C83.3 101 66.7 101 50 101C33.3 101 16.7 101 8.3 101L0 101Z" fill="#ffffff"></path></svg>