<svg id="visual" viewBox="0 0 1000 100" width="1000" height="100" xmlns="http://www.w3.org/2000/svg" xmlns:xlink="http://www.w3.org/1999/xlink" version="1.1"><rect x="0" y="0" width="1000" height="100" fill="#e1f6ff"></rect><path d="M0 10L7.2 12C14.3 14 28.7 18 43.2 22.7C57.7 27.3 72.3 32.7 86.8 29C101.3 25.3 115.7 12.7 130.2 7.3C144.7 2 159.3 4 173.8 6.7C188.3 9.3 202.7 12.7 217.2 11.8C231.7 11 246.3 6 260.8 8.2C275.3 10.3 289.7 19.7 304.2 24.8C318.7 30 333.3 31 347.8 30.7C362.3 30.3 376.7 28.7 391.2 27.7C405.7 26.7 420.3 26.3 434.8 24.3C449.3 22.3 463.7 18.7 478.2 14.8C492.7 11 507.3 7 521.8 10.3C536.3 13.7 550.7 24.3 565.2 25C579.7 25.7 594.3 16.3 608.8 14.2C623.3 12 637.7 17 652.2 17.8C666.7 18.7 681.3 15.3 695.8 17C710.3 18.7 724.7 25.3 739.2 24.8C753.7 24.3 768.3 16.7 782.8 16.8C797.3 17 811.7 25 826.2 29C840.7 33 855.3 33 869.8 27.5C884.3 22 898.7 11 913.2 7.5C927.7 4 942.3 8 956.8 8.3C971.3 8.7 985.7 5.3 992.8 3.7L1000 2L1000 101L992.8 101C985.7 101 971.3 101 956.8 101C942.3 101 927.7 101 913.2 101C898.7 101 884.3 101 869.8 101C855.3 101 840.7 101 826.2 101C811.7 101 797.3 101 782.8 101C768.3 101 753.7 101 739.2 101C724.7 101 710.3 101 695.8 101C681.3 101 666.7 101 652.2 101C637.7 101 623.3 101 608.8 101C594.3 101 579.7 101 565.2 101C550.7 101 536.3 101 521.8 101C507.3 101 492.7 101 478.2 101C463.7 101 449.3 101 434.8 101C420.3 101 405.7 101 391.2 101C376.7 101 362.3 101 347.8 101C333.3 101 318.7 101 304.2 101C289.7 101 275.3 101 260.8 101C246.3 101 231.7 101 217.2 101C202.7 101 188.3 101 173.8 101C159.3 101 144.7 101 130.2 101C115.7 101 101.3 101 86.8 101C72.3 101 57.7 101 43.2 101C28.7 101 14.3 101 7.2 101L0 101Z" fill="#e1f6ff"></path><path d="M0 15L7.2 16.7C14.3 18.3 28.7 21.7 43.2 24.2C57.7 26.7 72.3 28.3 86.8 31C101.3 33.7 115.7 37.3 130.2 39.5C144.7 41.7 159.3 42.3 173.8 39.2C188.3 36 202.7 29 217.2 28.2C231.7 27.3 246.3 32.7 260.8 34.7C275.3 36.7 289.7 35.3 304.2 31.2C318.7 27 333.3 20 347.8 19.8C362.3 19.7 376.7 26.3 391.2 27.3C405.7 28.3 420.3 23.7 434.8 19.3C449.3 15 463.7 11 478.2 11.2C492.7 11.3 507.3 15.7 521.8 19.5C536.3 23.3 550.7 26.7 565.2 24.8C579.7 23 594.3 16 608.8 14.2C623.3 12.3 637.7 15.7 652.2 17.7C666.7 19.7 681.3 20.3 695.8 19.7C710.3 19 724.7 17 739.2 18C753.7 19 768.3 23 782.8 26.7C797.3 30.3 811.7 33.7 826.2 33.5C840.7 33.3 855.3 29.7 869.8 30.2C884.3 30.7 898.7 35.3 913.2 34.8C927.7 34.3 942.3 28.7 956.8 27.2C971.3 25.7 985.7 28.3 992.8 29.7L1000 31L1000 101L992.8 101C985.7 101 971.3 101 956.8 101C942.3 101 927.7 101 913.2 101C898.7 101 884.3 101 869.8 101C855.3 101 840.7 101 826.2 101C811.7 101 797.3 101 782.8 101C768.3 101 753.7 101 739.2 101C724.7 101 710.3 101 695.8 101C681.3 101 666.7 101 652.2 101C637.7 101 623.3 101 608.8 101C594.3 101 579.7 101 565.2 101C550.7 101 536.3 101 521.8 101C507.3 101 492.7 101 478.2 101C463.7 101 449.3 101 434.8 101C420.3 101 405.7 101 391.2 101C376.7 101 362.3 101 347.8 101C333.3 101 318.7 101 304.2 101C289.7 101 275.3 101 260.8 101C246.3 101 231.7 101 217.2 101C202.7 101 188.3 101 173.8 101C159.3 101 144.7 101 130.2 101C115.7 101 101.3 101 86.8 101C72.3 101 57.7 101 43.2 101C28.7 101 14.3 101 7.2 101L0 101Z" fill="#cce3ee"></path><path d="M0 27L7.2 26.3C14.3 25.7 28.7 24.3 43.2 28C57.7 31.7 72.3 40.3 86.8 42.3C101.3 44.3 115.7 39.7 130.2 36.7C144.7 33.7 159.3 32.3 173.8 31.2C188.3 30 202.7 29 217.2 29.2C231.7 29.3 246.3 30.7 260.8 32.5C275.3 34.3 289.7 36.7 304.2 34.7C318.7 32.7 333.3 26.3 347.8 23.2C362.3 20 376.7 20 391.2 23C405.7 26 420.3 32 434.8 31.3C449.3 30.7 463.7 23.3 478.2 22.5C492.7 21.7 507.3 27.3 521.8 29.2C536.3 31 550.7 29 565.2 27.3C579.7 25.7 594.3 24.3 608.8 22.7C623.3 21 637.7 19 652.2 21C666.7 23 681.3 29 695.8 29C710.3 29 724.7 23 739.2 24.2C753.7 25.3 768.3 33.7 782.8 36C797.3 38.3 811.7 34.7 826.2 35.5C840.7 36.3 855.3 41.7 869.8 39.8C884.3 38 898.7 29 913.2 25C927.7 21 942.3 22 956.8 23.5C971.3 25 985.7 27 992.8 28L1000 29L1000 101L992.8 101C985.7 101 971.3 101 956.8 101C942.3 101 927.7 101 913.2 101C898.7 101 884.3 101 869.8 101C855.3 101 840.7 101 826.2 101C811.7 101 797.3 101 782.8 101C768.3 101 753.7 101 739.2 101C724.7 101 710.3 101 695.8 101C681.3 101 666.7 101 652.2 101C637.7 101 623.3 101 608.8 101C594.3 101 579.7 101 565.2 101C550.7 101 536.3 101 521.8 101C507.3 101 492.7 101 478.2 101C463.7 101 449.3 101 434.8 101C420.3 101 405.7 101 391.2 101C376.7 101 362.3 101 347.8 101C333.3 101 318.7 101 304.2 101C289.7 101 275.3 101 260.8 101C246.3 101 231.7 101 217.2 101C202.7 101 188.3 101 173.8 101C159.3 101 144.7 101 130.2 101C115.7 101 101.3 101 86.8 101C72.3 101 57.7 101 43.2 101C28.7 101 14.3 101 7.2 101L0 101Z" fill="#b7d0dc"></path><path d="M0 50L7.2 50.3C14.3 50.7 28.7 51.3 43.2 50.3C57.7 49.3 72.3 46.7 86.8 42.7C101.3 38.7 115.7 33.3 130.2 30.7C144.7 28 159.3 28 173.8 29.3C188.3 30.7 202.7 33.3 217.2 32.7C231.7 32 246.3 28 260.8 30.2C275.3 32.3 289.7 40.7 304.2 42.8C318.7 45 333.3 41 347.8 37.7C362.3 34.3 376.7 31.7 391.2 34.2C405.7 36.7 420.3 44.3 434.8 45.7C449.3 47 463.7 42 478.2 40.2C492.7 38.3 507.3 39.7 521.8 39C536.3 38.3 550.7 35.7 565.2 36.3C579.7 37 594.3 41 608.8 41.2C623.3 41.3 637.7 37.7 652.2 34.2C666.7 30.7 681.3 27.3 695.8 25.3C710.3 23.3 724.7 22.7 739.2 24.7C753.7 26.7 768.3 31.3 782.8 36.8C797.3 42.3 811.7 48.7 826.2 50C840.7 51.3 855.3 47.7 869.8 44.7C884.3 41.7 898.7 39.3 913.2 38.5C927.7 37.7 942.3 38.3 956.8 40.3C971.3 42.3 985.7 45.7 992.8 47.3L1000 49L1000 101L992.8 101C985.7 101 971.3 101 956.8 101C942.3 101 927.7 101 913.2 101C898.7 101 884.3 101 869.8 101C855.3 101 840.7 101 826.2 101C811.7 101 797.3 101 782.8 101C768.3 101 753.7 101 739.2 101C724.7 101 710.3 101 695.8 101C681.3 101 666.7 101 652.2 101C637.7 101 623.3 101 608.8 101C594.3 101 579.7 101 565.2 101C550.7 101 536.3 101 521.8 101C507.3 101 492.7 101 478.2 101C463.7 101 449.3 101 434.8 101C420.3 101 405.7 101 391.2 101C376.7 101 362.3 101 347.8 101C333.3 101 318.7 101 304.2 101C289.7 101 275.3 101 260.8 101C246.3 101 231.7 101 217.2 101C202.7 101 188.3 101 173.8 101C159.3 101 144.7 101 130.2 101C115.7 101 101.3 101 86.8 101C72.3 101 57.7 101 43.2 101C28.7 101 14.3 101 7.2 101L0 101Z" fill="#a2bdcc"></path><path d="M0 40L7.2 41C14.3 42 28.7 44 43.2 45.2C57.7 46.3 72.3 46.7 86.8 46.3C101.3 46 115.7 45 130.2 43.2C144.7 41.3 159.3 38.7 173.8 40C188.3 41.3 202.7 46.7 217.2 46.2C231.7 45.7 246.3 39.3 260.8 37.3C275.3 35.3 289.7 37.7 304.2 40.3C318.7 43 333.3 46 347.8 46.7C362.3 47.3 376.7 45.7 391.2 47.7C405.7 49.7 420.3 55.3 434.8 53.2C449.3 51 463.7 41 478.2 39C492.7 37 507.3 43 521.8 44.8C536.3 46.7 550.7 44.3 565.2 42.5C579.7 40.7 594.3 39.3 608.8 40.7C623.3 42 637.7 46 652.2 47.3C666.7 48.7 681.3 47.3 695.8 47C710.3 46.7 724.7 47.3 739.2 45.8C753.7 44.3 768.3 40.7 782.8 42.7C797.3 44.7 811.7 52.3 826.2 54.8C840.7 57.3 855.3 54.7 869.8 53.8C884.3 53 898.7 54 913.2 54.5C927.7 55 942.3 55 956.8 55.7C971.3 56.3 985.7 57.7 992.8 58.3L1000 59L1000 101L992.8 101C985.7 101 971.3 101 956.8 101C942.3 101 927.7 101 913.2 101C898.7 101 884.3 101 869.8 101C855.3 101 840.7 101 826.2 101C811.7 101 797.3 101 782.8 101C768.3 101 753.7 101 739.2 101C724.7 101 710.3 101 695.8 101C681.3 101 666.7 101 652.2 101C637.7 101 623.3 101 608.8 101C594.3 101 579.7 101 565.2 101C550.7 101 536.3 101 521.8 101C507.3 101 492.7 101 478.2 101C463.7 101 449.3 101 434.8 101C420.3 101 405.7 101 391.2 101C376.7 101 362.3 101 347.8 101C333.3 101 318.7 101 304.2 101C289.7 101 275.3 101 260.8 101C246.3 101 231.7 101 217.2 101C202.7 101 188.3 101 173.8 101C159.3 101 144.7 101 130.2 101C115.7 101 101.3 101 86.8 101C72.3 101 57.7 101 43.2 101C28.7 101 14.3 101 7.2 101L0 101Z" fill="#8eabbb"></path><path d="M0 57L7.2 55.8C14.3 54.7 28.7 52.3 43.2 51.7C57.7 51 72.3 52 86.8 51.7C101.3 51.3 115.7 49.7 130.2 47.7C144.7 45.7 159.3 43.3 173.8 44.3C188.3 45.3 202.7 49.7 217.2 52.2C231.7 54.7 246.3 55.3 260.8 54.3C275.3 53.3 289.7 50.7 304.2 51.3C318.7 52 333.3 56 347.8 55.2C362.3 54.3 376.7 48.7 391.2 47C405.7 45.3 420.3 47.7 434.8 49.8C449.3 52 463.7 54 478.2 54.5C492.7 55 507.3 54 521.8 53.2C536.3 52.3 550.7 51.7 565.2 53.5C579.7 55.3 594.3 59.7 608.8 57.8C623.3 56 637.7 48 652.2 44C666.7 40 681.3 40 695.8 43C710.3 46 724.7 52 739.2 55.2C753.7 58.3 768.3 58.7 782.8 58.7C797.3 58.7 811.7 58.3 826.2 56.7C840.7 55 855.3 52 869.8 52.7C884.3 53.3 898.7 57.7 913.2 57.7C927.7 57.7 942.3 53.3 956.8 53.5C971.3 53.7 985.7 58.3 992.8 60.7L1000 63L1000 101L992.8 101C985.7 101 971.3 101 956.8 101C942.3 101 927.7 101 913.2 101C898.7 101 884.3 101 869.8 101C855.3 101 840.7 101 826.2 101C811.7 101 797.3 101 782.8 101C768.3 101 753.7 101 739.2 101C724.7 101 710.3 101 695.8 101C681.3 101 666.7 101 652.2 101C637.7 101 623.3 101 608.8 101C594.3 101 579.7 101 565.2 101C550.7 101 536.3 101 521.8 101C507.3 101 492.7 101 478.2 101C463.7 101 449.3 101 434.8 101C420.3 101 405.7 101 391.2 101C376.7 101 362.3 101 347.8 101C333.3 101 318.7 101 304.2 101C289.7 101 275.3 101 260.8 101C246.3 101 231.7 101 217.2 101C202.7 101 188.3 101 173.8 101C159.3 101 144.7 101 130.2 101C115.7 101 101.3 101 86.8 101C72.3 101 57.7 101 43.2 101C28.7 101 14.3 101 7.2 101L0 101Z" fill="#7b99ab"></path><path d="M0 51L7.2 51.3C14.3 51.7 28.7 52.3 43.2 51.7C57.7 51 72.3 49 86.8 50C101.3 51 115.7 55 130.2 55.5C144.7 56 159.3 53 173.8 52.8C188.3 52.7 202.7 55.3 217.2 57.2C231.7 59 246.3 60 260.8 59.7C275.3 59.3 289.7 57.7 304.2 59C318.7 60.3 333.3 64.7 347.8 63.8C362.3 63 376.7 57 391.2 57C405.7 57 420.3 63 434.8 64.2C449.3 65.3 463.7 61.7 478.2 62C492.7 62.3 507.3 66.7 521.8 67.3C536.3 68 550.7 65 565.2 63.7C579.7 62.3 594.3 62.7 608.8 62.2C623.3 61.7 637.7 60.3 652.2 59.3C666.7 58.3 681.3 57.7 695.8 59C710.3 60.3 724.7 63.7 739.2 65.7C753.7 67.7 768.3 68.3 782.8 65.3C797.3 62.3 811.7 55.7 826.2 55.7C840.7 55.7 855.3 62.3 869.8 63.7C884.3 65 898.7 61 913.2 58.2C927.7 55.3 942.3 53.7 956.8 55.3C971.3 57 985.7 62 992.8 64.5L1000 67L1000 101L992.8 101C985.7 101 971.3 101 956.8 101C942.3 101 927.7 101 913.2 101C898.7 101 884.3 101 869.8 101C855.3 101 840.7 101 826.2 101C811.7 101 797.3 101 782.8 101C768.3 101 753.7 101 739.2 101C724.7 101 710.3 101 695.8 101C681.3 101 666.7 101 652.2 101C637.7 101 623.3 101 608.8 101C594.3 101 579.7 101 565.2 101C550.7 101 536.3 101 521.8 101C507.3 101 492.7 101 478.2 101C463.7 101 449.3 101 434.8 101C420.3 101 405.7 101 391.2 101C376.7 101 362.3 101 347.8 101C333.3 101 318.7 101 304.2 101C289.7 101 275.3 101 260.8 101C246.3 101 231.7 101 217.2 101C202.7 101 188.3 101 173.8 101C159.3 101 144.7 101 130.2 101C115.7 101 101.3 101 86.8 101C72.3 101 57.7 101 43.2 101C28.7 101 14.3 101 7.2 101L0 101Z" fill="#67879b"></path><path d="M0 59L7.2 58.2C14.3 57.3 28.7 55.7 43.2 57.2C57.7 58.7 72.3 63.3 86.8 63.7C101.3 64 115.7 60 130.2 60.3C144.7 60.7 159.3 65.3 173.8 67.8C188.3 70.3 202.7 70.7 217.2 71.3C231.7 72 246.3 73 260.8 72C275.3 71 289.7 68 304.2 67.8C318.7 67.7 333.3 70.3 347.8 71.8C362.3 73.3 376.7 73.7 391.2 71.5C405.7 69.3 420.3 64.7 434.8 63C449.3 61.3 463.7 62.7 478.2 61.7C492.7 60.7 507.3 57.3 521.8 59.5C536.3 61.7 550.7 69.3 565.2 69.2C579.7 69 594.3 61 608.8 60.2C623.3 59.3 637.7 65.7 652.2 66.2C666.7 66.7 681.3 61.3 695.8 60.7C710.3 60 724.7 64 739.2 66.2C753.7 68.3 768.3 68.7 782.8 68C797.3 67.3 811.7 65.7 826.2 65.5C840.7 65.3 855.3 66.7 869.8 66.3C884.3 66 898.7 64 913.2 64.3C927.7 64.7 942.3 67.3 956.8 68.7C971.3 70 985.7 70 992.8 70L1000 70L1000 101L992.8 101C985.7 101 971.3 101 956.8 101C942.3 101 927.7 101 913.2 101C898.7 101 884.3 101 869.8 101C855.3 101 840.7 101 826.2 101C811.7 101 797.3 101 782.8 101C768.3 101 753.7 101 739.2 101C724.7 101 710.3 101 695.8 101C681.3 101 666.7 101 652.2 101C637.7 101 623.3 101 608.8 101C594.3 101 579.7 101 565.2 101C550.7 101 536.3 101 521.8 101C507.3 101 492.7 101 478.2 101C463.7 101 449.3 101 434.8 101C420.3 101 405.7 101 391.2 101C376.7 101 362.3 101 347.8 101C333.3 101 318.7 101 304.2 101C289.7 101 275.3 101 260.8 101C246.3 101 231.7 101 217.2 101C202.7 101 188.3 101 173.8 101C159.3 101 144.7 101 130.2 101C115.7 101 101.3 101 86.8 101C72.3 101 57.7 101 43.2 101C28.7 101 14.3 101 7.2 101L0 101Z" fill="#55768b"></path><path d="M0 78L7.2 78.3C14.3 78.7 28.7 79.3 43.2 78.8C57.7 78.3 72.3 76.7 86.8 73.5C101.3 70.3 115.7 65.7 130.2 66.8C144.7 68 159.3 75 173.8 76.7C188.3 78.3 202.7 74.7 217.2 71.7C231.7 68.7 246.3 66.3 260.8 66C275.3 65.7 289.7 67.3 304.2 70.2C318.7 73 333.3 77 347.8 76.2C362.3 75.3 376.7 69.7 391.2 68C405.7 66.3 420.3 68.7 434.8 68.5C449.3 68.3 463.7 65.7 478.2 65C492.7 64.3 507.3 65.7 521.8 66C536.3 66.3 550.7 65.7 565.2 68C579.7 70.3 594.3 75.7 608.8 78.3C623.3 81 637.7 81 652.2 81C666.7 81 681.3 81 695.8 80.5C710.3 80 724.7 79 739.2 76C753.7 73 768.3 68 782.8 66.7C797.3 65.3 811.7 67.7 826.2 67.5C840.7 67.3 855.3 64.7 869.8 66.2C884.3 67.7 898.7 73.3 913.2 76C927.7 78.7 942.3 78.3 956.8 77.8C971.3 77.3 985.7 76.7 992.8 76.3L1000 76L1000 101L992.8 101C985.7 101 971.3 101 956.8 101C942.3 101 927.7 101 913.2 101C898.7 101 884.3 101 869.8 101C855.3 101 840.7 101 826.2 101C811.7 101 797.3 101 782.8 101C768.3 101 753.7 101 739.2 101C724.7 101 710.3 101 695.8 101C681.3 101 666.7 101 652.2 101C637.7 101 623.3 101 608.8 101C594.3 101 579.7 101 565.2 101C550.7 101 536.3 101 521.8 101C507.3 101 492.7 101 478.2 101C463.7 101 449.3 101 434.8 101C420.3 101 405.7 101 391.2 101C376.7 101 362.3 101 347.8 101C333.3 101 318.7 101 304.2 101C289.7 101 275.3 101 260.8 101C246.3 101 231.7 101 217.2 101C202.7 101 188.3 101 173.8 101C159.3 101 144.7 101 130.2 101C115.7 101 101.3 101 86.8 101C72.3 101 57.7 101 43.2 101C28.7 101 14.3 101 7.2 101L0 101Z" fill="#42657c"></path><path d="M0 84L7.2 81.7C14.3 79.3 28.7 74.7 43.2 74.7C57.7 74.7 72.3 79.3 86.8 79.5C101.3 79.7 115.7 75.3 130.2 75.8C144.7 76.3 159.3 81.7 173.8 84C188.3 86.3 202.7 85.7 217.2 82.7C231.7 79.7 246.3 74.3 260.8 71.7C275.3 69 289.7 69 304.2 70.2C318.7 71.3 333.3 73.7 347.8 76C362.3 78.3 376.7 80.7 391.2 80C405.7 79.3 420.3 75.7 434.8 74.8C449.3 74 463.7 76 478.2 75.7C492.7 75.3 507.3 72.7 521.8 71C536.3 69.3 550.7 68.7 565.2 70.2C579.7 71.7 594.3 75.3 608.8 76.5C623.3 77.7 637.7 76.3 652.2 75C666.7 73.7 681.3 72.3 695.8 72C710.3 71.7 724.7 72.3 739.2 72C753.7 71.7 768.3 70.3 782.8 70.7C797.3 71 811.7 73 826.2 75.7C840.7 78.3 855.3 81.7 869.8 82.5C884.3 83.3 898.7 81.7 913.2 80C927.7 78.3 942.3 76.7 956.8 75.8C971.3 75 985.7 75 992.8 75L1000 75L1000 101L992.8 101C985.7 101 971.3 101 956.8 101C942.3 101 927.7 101 913.2 101C898.7 101 884.3 101 869.8 101C855.3 101 840.7 101 826.2 101C811.7 101 797.3 101 782.8 101C768.3 101 753.7 101 739.2 101C724.7 101 710.3 101 695.8 101C681.3 101 666.7 101 652.2 101C637.7 101 623.3 101 608.8 101C594.3 101 579.7 101 565.2 101C550.7 101 536.3 101 521.8 101C507.3 101 492.7 101 478.2 101C463.7 101 449.3 101 434.8 101C420.3 101 405.7 101 391.2 101C376.7 101 362.3 101 347.8 101C333.3 101 318.7 101 304.2 101C289.7 101 275.3 101 260.8 101C246.3 101 231.7 101 217.2 101C202.7 101 188.3 101 173.8 101C159.3 101 144.7 101 130.2 101C115.7 101 101.3 101 86.8 101C72.3 101 57.7 101 43.2 101C28.7 101 14.3 101 7.2 101L0 101Z" fill="#2f546d"></path><path d="M0 81L7.2 81.2C14.3 81.3 28.7 81.7 43.2 82.3C57.7 83 72.3 84 86.8 83.7C101.3 83.3 115.7 81.7 130.2 82.3C144.7 83 159.3 86 173.8 86.5C188.3 87 202.7 85 217.2 85.5C231.7 86 246.3 89 260.8 89.5C275.3 90 289.7 88 304.2 85.7C318.7 83.3 333.3 80.7 347.8 80.8C362.3 81 376.7 84 391.2 84.7C405.7 85.3 420.3 83.7 434.8 84.2C449.3 84.7 463.7 87.3 478.2 87.8C492.7 88.3 507.3 86.7 521.8 86.5C536.3 86.3 550.7 87.7 565.2 88.5C579.7 89.3 594.3 89.7 608.8 89.7C623.3 89.7 637.7 89.3 652.2 88.2C666.7 87 681.3 85 695.8 83.5C710.3 82 724.7 81 739.2 81.8C753.7 82.7 768.3 85.3 782.8 87C797.3 88.7 811.7 89.3 826.2 88.8C840.7 88.3 855.3 86.7 869.8 84.3C884.3 82 898.7 79 913.2 77.7C927.7 76.3 942.3 76.7 956.8 77.7C971.3 78.7 985.7 80.3 992.8 81.2L1000 82L1000 101L992.8 101C985.7 101 971.3 101 956.8 101C942.3 101 927.7 101 913.2 101C898.7 101 884.3 101 869.8 101C855.3 101 840.7 101 826.2 101C811.7 101 797.3 101 782.8 101C768.3 101 753.7 101 739.2 101C724.7 101 710.3 101 695.8 101C681.3 101 666.7 101 652.2 101C637.7 101 623.3 101 608.8 101C594.3 101 579.7 101 565.2 101C550.7 101 536.3 101 521.8 101C507.3 101 492.7 101 478.2 101C463.7 101 449.3 101 434.8 101C420.3 101 405.7 101 391.2 101C376.7 101 362.3 101 347.8 101C333.3 101 318.7 101 304.2 101C289.7 101 275.3 101 260.8 101C246.3 101 231.7 101 217.2 101C202.7 101 188.3 101 173.8 101C159.3 101 144.7 101 130.2 101C115.7 101 101.3 101 86.8 101C72.3 101 57.7 101 43.2 101C28.7 101 14.3 101 7.2 101L0 101Z" fill="#1b445e"></path><path d="M0 95L7.2 94C14.3 93 28.7 91 43.2 91.2C57.7 91.3 72.3 93.7 86.8 93C101.3 92.3 115.7 88.7 130.2 88.3C144.7 88 159.3 91 173.8 93.2C188.3 95.3 202.7 96.7 217.2 95.5C231.7 94.3 246.3 90.7 260.8 90.3C275.3 90 289.7 93 304.2 94C318.7 95 333.3 94 347.8 93.8C362.3 93.7 376.7 94.3 391.2 94.5C405.7 94.7 420.3 94.3 434.8 92.7C449.3 91 463.7 88 478.2 88C492.7 88 507.3 91 521.8 91C536.3 91 550.7 88 565.2 87C579.7 86 594.3 87 608.8 89C623.3 91 637.7 94 652.2 94.2C666.7 94.3 681.3 91.7 695.8 89.8C710.3 88 724.7 87 739.2 87.7C753.7 88.3 768.3 90.7 782.8 92.2C797.3 93.7 811.7 94.3 826.2 93.5C840.7 92.7 855.3 90.3 869.8 89C884.3 87.7 898.7 87.3 913.2 86.8C927.7 86.3 942.3 85.7 956.8 86.3C971.3 87 985.7 89 992.8 90L1000 91L1000 101L992.8 101C985.7 101 971.3 101 956.8 101C942.3 101 927.7 101 913.2 101C898.7 101 884.3 101 869.8 101C855.3 101 840.7 101 826.2 101C811.7 101 797.3 101 782.8 101C768.3 101 753.7 101 739.2 101C724.7 101 710.3 101 695.8 101C681.3 101 666.7 101 652.2 101C637.7 101 623.3 101 608.8 101C594.3 101 579.7 101 565.2 101C550.7 101 536.3 101 521.8 101C507.3 101 492.7 101 478.2 101C463.7 101 449.3 101 434.8 101C420.3 101 405.7 101 391.2 101C376.7 101 362.3 101 347.8 101C333.3 101 318.7 101 304.2 101C289.7 101 275.3 101 260.8 101C246.3 101 231.7 101 217.2 101C202.7 101 188.3 101 173.8 101C159.3 101 144.7 101 130.2 101C115.7 101 101.3 101 86.8 101C72.3 101 57.7 101 43.2 101C28.7 101 14.3 101 7.2 101L0 101Z" fill="#003550"></path></svg>