<svg id="visual" viewBox="0 0 1000 100" width="1000" height="100" xmlns="http://www.w3.org/2000/svg" xmlns:xlink="http://www.w3.org/1999/xlink" version="1.1"><rect x="0" y="0" width="1000" height="100" fill="#FFFFFF"></rect><path d="M0 20L7.2 19.2C14.3 18.3 28.7 16.7 43.2 16.7C57.7 16.7 72.3 18.3 86.8 16.8C101.3 15.3 115.7 10.7 130.2 13.3C144.7 16 159.3 26 173.8 25C188.3 24 202.7 12 217.2 11.5C231.7 11 246.3 22 260.8 26.7C275.3 31.3 289.7 29.7 304.2 25.2C318.7 20.7 333.3 13.3 347.8 8.8C362.3 4.3 376.7 2.7 391.2 3.2C405.7 3.7 420.3 6.3 434.8 10.8C449.3 15.3 463.7 21.7 478.2 23.5C492.7 25.3 507.3 22.7 521.8 19.2C536.3 15.7 550.7 11.3 565.2 12.8C579.7 14.3 594.3 21.7 608.8 26C623.3 30.3 637.7 31.7 652.2 33.2C666.7 34.7 681.3 36.3 695.8 32C710.3 27.7 724.7 17.3 739.2 14.8C753.7 12.3 768.3 17.7 782.8 18.5C797.3 19.3 811.7 15.7 826.2 16.3C840.7 17 855.3 22 869.8 22C884.3 22 898.7 17 913.2 13.5C927.7 10 942.3 8 956.8 9.7C971.3 11.3 985.7 16.7 992.8 19.3L1000 22L1000 101L992.8 101C985.7 101 971.3 101 956.8 101C942.3 101 927.7 101 913.2 101C898.7 101 884.3 101 869.8 101C855.3 101 840.7 101 826.2 101C811.7 101 797.3 101 782.8 101C768.3 101 753.7 101 739.2 101C724.7 101 710.3 101 695.8 101C681.3 101 666.7 101 652.2 101C637.7 101 623.3 101 608.8 101C594.3 101 579.7 101 565.2 101C550.7 101 536.3 101 521.8 101C507.3 101 492.7 101 478.2 101C463.7 101 449.3 101 434.8 101C420.3 101 405.7 101 391.2 101C376.7 101 362.3 101 347.8 101C333.3 101 318.7 101 304.2 101C289.7 101 275.3 101 260.8 101C246.3 101 231.7 101 217.2 101C202.7 101 188.3 101 173.8 101C159.3 101 144.7 101 130.2 101C115.7 101 101.3 101 86.8 101C72.3 101 57.7 101 43.2 101C28.7 101 14.3 101 7.2 101L0 101Z" fill="#ffffff"></path><path d="M0 28L7.2 29.7C14.3 31.3 28.7 34.7 43.2 33.5C57.7 32.3 72.3 26.7 86.8 27C101.3 27.3 115.7 33.7 130.2 32.7C144.7 31.7 159.3 23.3 173.8 22.5C188.3 21.7 202.7 28.3 217.2 32.5C231.7 36.7 246.3 38.3 260.8 38.8C275.3 39.3 289.7 38.7 304.2 38C318.7 37.3 333.3 36.7 347.8 36.2C362.3 35.7 376.7 35.3 391.2 35.5C405.7 35.7 420.3 36.3 434.8 36C449.3 35.7 463.7 34.3 478.2 30.3C492.7 26.3 507.3 19.7 521.8 21.2C536.3 22.7 550.7 32.3 565.2 37.3C579.7 42.3 594.3 42.7 608.8 37.5C623.3 32.3 637.7 21.7 652.2 21.3C666.7 21 681.3 31 695.8 30.5C710.3 30 724.7 19 739.2 17.5C753.7 16 768.3 24 782.8 25.2C797.3 26.3 811.7 20.7 826.2 19.5C840.7 18.3 855.3 21.7 869.8 22.7C884.3 23.7 898.7 22.3 913.2 22.5C927.7 22.7 942.3 24.3 956.8 28.2C971.3 32 985.7 38 992.8 41L1000 44L1000 101L992.8 101C985.7 101 971.3 101 956.8 101C942.3 101 927.7 101 913.2 101C898.7 101 884.3 101 869.8 101C855.3 101 840.7 101 826.2 101C811.7 101 797.3 101 782.8 101C768.3 101 753.7 101 739.2 101C724.7 101 710.3 101 695.8 101C681.3 101 666.7 101 652.2 101C637.7 101 623.3 101 608.8 101C594.3 101 579.7 101 565.2 101C550.7 101 536.3 101 521.8 101C507.3 101 492.7 101 478.2 101C463.7 101 449.3 101 434.8 101C420.3 101 405.7 101 391.2 101C376.7 101 362.3 101 347.8 101C333.3 101 318.7 101 304.2 101C289.7 101 275.3 101 260.8 101C246.3 101 231.7 101 217.2 101C202.7 101 188.3 101 173.8 101C159.3 101 144.7 101 130.2 101C115.7 101 101.3 101 86.8 101C72.3 101 57.7 101 43.2 101C28.7 101 14.3 101 7.2 101L0 101Z" fill="#e8ebee"></path><path d="M0 29L7.2 27.8C14.3 26.7 28.7 24.3 43.2 23.7C57.7 23 72.3 24 86.8 25.5C101.3 27 115.7 29 130.2 31.7C144.7 34.3 159.3 37.7 173.8 37.2C188.3 36.7 202.7 32.3 217.2 29.5C231.7 26.7 246.3 25.3 260.8 28.5C275.3 31.7 289.7 39.3 304.2 42.7C318.7 46 333.3 45 347.8 40.2C362.3 35.3 376.7 26.7 391.2 23C405.7 19.3 420.3 20.7 434.8 21.3C449.3 22 463.7 22 478.2 20.8C492.7 19.7 507.3 17.3 521.8 18.8C536.3 20.3 550.7 25.7 565.2 30.8C579.7 36 594.3 41 608.8 39C623.3 37 637.7 28 652.2 24C666.7 20 681.3 21 695.8 26.2C710.3 31.3 724.7 40.7 739.2 44.3C753.7 48 768.3 46 782.8 45.5C797.3 45 811.7 46 826.2 43.7C840.7 41.3 855.3 35.7 869.8 35.3C884.3 35 898.7 40 913.2 41.5C927.7 43 942.3 41 956.8 37.2C971.3 33.3 985.7 27.7 992.8 24.8L1000 22L1000 101L992.8 101C985.7 101 971.3 101 956.8 101C942.3 101 927.7 101 913.2 101C898.7 101 884.3 101 869.8 101C855.3 101 840.7 101 826.2 101C811.7 101 797.3 101 782.8 101C768.3 101 753.7 101 739.2 101C724.7 101 710.3 101 695.8 101C681.3 101 666.7 101 652.2 101C637.7 101 623.3 101 608.8 101C594.3 101 579.7 101 565.2 101C550.7 101 536.3 101 521.8 101C507.3 101 492.7 101 478.2 101C463.7 101 449.3 101 434.8 101C420.3 101 405.7 101 391.2 101C376.7 101 362.3 101 347.8 101C333.3 101 318.7 101 304.2 101C289.7 101 275.3 101 260.8 101C246.3 101 231.7 101 217.2 101C202.7 101 188.3 101 173.8 101C159.3 101 144.7 101 130.2 101C115.7 101 101.3 101 86.8 101C72.3 101 57.7 101 43.2 101C28.7 101 14.3 101 7.2 101L0 101Z" fill="#d1d6dd"></path><path d="M0 44L7.2 43.7C14.3 43.3 28.7 42.7 43.2 41.2C57.7 39.7 72.3 37.3 86.8 35C101.3 32.7 115.7 30.3 130.2 31.2C144.7 32 159.3 36 173.8 39.5C188.3 43 202.7 46 217.2 43.7C231.7 41.3 246.3 33.7 260.8 34.7C275.3 35.7 289.7 45.3 304.2 49.3C318.7 53.3 333.3 51.7 347.8 48.8C362.3 46 376.7 42 391.2 40C405.7 38 420.3 38 434.8 39.7C449.3 41.3 463.7 44.7 478.2 44.3C492.7 44 507.3 40 521.8 38.5C536.3 37 550.7 38 565.2 39.5C579.7 41 594.3 43 608.8 41.5C623.3 40 637.7 35 652.2 35.2C666.7 35.3 681.3 40.7 695.8 44C710.3 47.3 724.7 48.7 739.2 46.3C753.7 44 768.3 38 782.8 33.8C797.3 29.7 811.7 27.3 826.2 29C840.7 30.7 855.3 36.3 869.8 39.3C884.3 42.3 898.7 42.7 913.2 40.3C927.7 38 942.3 33 956.8 30C971.3 27 985.7 26 992.8 25.5L1000 25L1000 101L992.8 101C985.7 101 971.3 101 956.8 101C942.3 101 927.7 101 913.2 101C898.7 101 884.3 101 869.8 101C855.3 101 840.7 101 826.2 101C811.7 101 797.3 101 782.8 101C768.3 101 753.7 101 739.2 101C724.7 101 710.3 101 695.8 101C681.3 101 666.7 101 652.2 101C637.7 101 623.3 101 608.8 101C594.3 101 579.7 101 565.2 101C550.7 101 536.3 101 521.8 101C507.3 101 492.7 101 478.2 101C463.7 101 449.3 101 434.8 101C420.3 101 405.7 101 391.2 101C376.7 101 362.3 101 347.8 101C333.3 101 318.7 101 304.2 101C289.7 101 275.3 101 260.8 101C246.3 101 231.7 101 217.2 101C202.7 101 188.3 101 173.8 101C159.3 101 144.7 101 130.2 101C115.7 101 101.3 101 86.8 101C72.3 101 57.7 101 43.2 101C28.7 101 14.3 101 7.2 101L0 101Z" fill="#bac3cc"></path><path d="M0 59L7.2 54.3C14.3 49.7 28.7 40.3 43.2 40C57.7 39.7 72.3 48.3 86.8 51.5C101.3 54.7 115.7 52.3 130.2 52C144.7 51.7 159.3 53.3 173.8 54.2C188.3 55 202.7 55 217.2 52.7C231.7 50.3 246.3 45.7 260.8 46.2C275.3 46.7 289.7 52.3 304.2 52.7C318.7 53 333.3 48 347.8 47.8C362.3 47.7 376.7 52.3 391.2 51.7C405.7 51 420.3 45 434.8 41.2C449.3 37.3 463.7 35.7 478.2 38.8C492.7 42 507.3 50 521.8 52.5C536.3 55 550.7 52 565.2 47.7C579.7 43.3 594.3 37.7 608.8 35.7C623.3 33.7 637.7 35.3 652.2 38.5C666.7 41.7 681.3 46.3 695.8 50.2C710.3 54 724.7 57 739.2 54.2C753.7 51.3 768.3 42.7 782.8 42.3C797.3 42 811.7 50 826.2 50C840.7 50 855.3 42 869.8 39.7C884.3 37.3 898.7 40.7 913.2 40.5C927.7 40.3 942.3 36.7 956.8 38.3C971.3 40 985.7 47 992.8 50.5L1000 54L1000 101L992.8 101C985.7 101 971.3 101 956.8 101C942.3 101 927.7 101 913.2 101C898.7 101 884.3 101 869.8 101C855.3 101 840.7 101 826.2 101C811.7 101 797.3 101 782.8 101C768.3 101 753.7 101 739.2 101C724.7 101 710.3 101 695.8 101C681.3 101 666.7 101 652.2 101C637.7 101 623.3 101 608.8 101C594.3 101 579.7 101 565.2 101C550.7 101 536.3 101 521.8 101C507.3 101 492.7 101 478.2 101C463.7 101 449.3 101 434.8 101C420.3 101 405.7 101 391.2 101C376.7 101 362.3 101 347.8 101C333.3 101 318.7 101 304.2 101C289.7 101 275.3 101 260.8 101C246.3 101 231.7 101 217.2 101C202.7 101 188.3 101 173.8 101C159.3 101 144.7 101 130.2 101C115.7 101 101.3 101 86.8 101C72.3 101 57.7 101 43.2 101C28.7 101 14.3 101 7.2 101L0 101Z" fill="#a4afbb"></path><path d="M0 53L7.2 52.2C14.3 51.3 28.7 49.7 43.2 49.3C57.7 49 72.3 50 86.8 49.3C101.3 48.7 115.7 46.3 130.2 47.7C144.7 49 159.3 54 173.8 55C188.3 56 202.7 53 217.2 54.2C231.7 55.3 246.3 60.7 260.8 62.5C275.3 64.3 289.7 62.7 304.2 58.5C318.7 54.3 333.3 47.7 347.8 48.7C362.3 49.7 376.7 58.3 391.2 61.2C405.7 64 420.3 61 434.8 56.3C449.3 51.7 463.7 45.3 478.2 46.5C492.7 47.7 507.3 56.3 521.8 59C536.3 61.7 550.7 58.3 565.2 55.7C579.7 53 594.3 51 608.8 51.2C623.3 51.3 637.7 53.7 652.2 52.2C666.7 50.7 681.3 45.3 695.8 43.2C710.3 41 724.7 42 739.2 46.5C753.7 51 768.3 59 782.8 58.5C797.3 58 811.7 49 826.2 45.7C840.7 42.3 855.3 44.7 869.8 48C884.3 51.3 898.7 55.7 913.2 57.2C927.7 58.7 942.3 57.3 956.8 54.5C971.3 51.7 985.7 47.3 992.8 45.2L1000 43L1000 101L992.8 101C985.7 101 971.3 101 956.8 101C942.3 101 927.7 101 913.2 101C898.7 101 884.3 101 869.8 101C855.3 101 840.7 101 826.2 101C811.7 101 797.3 101 782.8 101C768.3 101 753.7 101 739.2 101C724.7 101 710.3 101 695.8 101C681.3 101 666.7 101 652.2 101C637.7 101 623.3 101 608.8 101C594.3 101 579.7 101 565.2 101C550.7 101 536.3 101 521.8 101C507.3 101 492.7 101 478.2 101C463.7 101 449.3 101 434.8 101C420.3 101 405.7 101 391.2 101C376.7 101 362.3 101 347.8 101C333.3 101 318.7 101 304.2 101C289.7 101 275.3 101 260.8 101C246.3 101 231.7 101 217.2 101C202.7 101 188.3 101 173.8 101C159.3 101 144.7 101 130.2 101C115.7 101 101.3 101 86.8 101C72.3 101 57.7 101 43.2 101C28.7 101 14.3 101 7.2 101L0 101Z" fill="#8e9cab"></path><path d="M0 71L7.2 69.7C14.3 68.3 28.7 65.7 43.2 64.2C57.7 62.7 72.3 62.3 86.8 62.2C101.3 62 115.7 62 130.2 61.5C144.7 61 159.3 60 173.8 61.5C188.3 63 202.7 67 217.2 66.7C231.7 66.3 246.3 61.7 260.8 60.5C275.3 59.3 289.7 61.7 304.2 61.8C318.7 62 333.3 60 347.8 59.5C362.3 59 376.7 60 391.2 59.3C405.7 58.7 420.3 56.3 434.8 54.2C449.3 52 463.7 50 478.2 51.7C492.7 53.3 507.3 58.7 521.8 62.5C536.3 66.3 550.7 68.7 565.2 68.5C579.7 68.3 594.3 65.7 608.8 62.2C623.3 58.7 637.7 54.3 652.2 53.3C666.7 52.3 681.3 54.7 695.8 56.7C710.3 58.7 724.7 60.3 739.2 60.7C753.7 61 768.3 60 782.8 57.8C797.3 55.7 811.7 52.3 826.2 50.8C840.7 49.3 855.3 49.7 869.8 52.5C884.3 55.3 898.7 60.7 913.2 64.2C927.7 67.7 942.3 69.3 956.8 70.3C971.3 71.3 985.7 71.7 992.8 71.8L1000 72L1000 101L992.8 101C985.7 101 971.3 101 956.8 101C942.3 101 927.7 101 913.2 101C898.7 101 884.3 101 869.8 101C855.3 101 840.7 101 826.2 101C811.7 101 797.3 101 782.8 101C768.3 101 753.7 101 739.2 101C724.7 101 710.3 101 695.8 101C681.3 101 666.7 101 652.2 101C637.7 101 623.3 101 608.8 101C594.3 101 579.7 101 565.2 101C550.7 101 536.3 101 521.8 101C507.3 101 492.7 101 478.2 101C463.7 101 449.3 101 434.8 101C420.3 101 405.7 101 391.2 101C376.7 101 362.3 101 347.8 101C333.3 101 318.7 101 304.2 101C289.7 101 275.3 101 260.8 101C246.3 101 231.7 101 217.2 101C202.7 101 188.3 101 173.8 101C159.3 101 144.7 101 130.2 101C115.7 101 101.3 101 86.8 101C72.3 101 57.7 101 43.2 101C28.7 101 14.3 101 7.2 101L0 101Z" fill="#788a9b"></path><path d="M0 55L7.2 58.2C14.3 61.3 28.7 67.7 43.2 68.2C57.7 68.7 72.3 63.3 86.8 60.2C101.3 57 115.7 56 130.2 55.7C144.7 55.3 159.3 55.7 173.8 56.8C188.3 58 202.7 60 217.2 59.7C231.7 59.3 246.3 56.7 260.8 56.8C275.3 57 289.7 60 304.2 63.2C318.7 66.3 333.3 69.7 347.8 70.2C362.3 70.7 376.7 68.3 391.2 66.7C405.7 65 420.3 64 434.8 65.3C449.3 66.7 463.7 70.3 478.2 71C492.7 71.7 507.3 69.3 521.8 66.3C536.3 63.3 550.7 59.7 565.2 60.5C579.7 61.3 594.3 66.7 608.8 70.2C623.3 73.7 637.7 75.3 652.2 75.3C666.7 75.3 681.3 73.7 695.8 69.8C710.3 66 724.7 60 739.2 59.3C753.7 58.7 768.3 63.3 782.8 65C797.3 66.7 811.7 65.3 826.2 65.5C840.7 65.7 855.3 67.3 869.8 69.2C884.3 71 898.7 73 913.2 73C927.7 73 942.3 71 956.8 70.7C971.3 70.3 985.7 71.7 992.8 72.3L1000 73L1000 101L992.8 101C985.7 101 971.3 101 956.8 101C942.3 101 927.7 101 913.2 101C898.7 101 884.3 101 869.8 101C855.3 101 840.7 101 826.2 101C811.7 101 797.3 101 782.8 101C768.3 101 753.7 101 739.2 101C724.7 101 710.3 101 695.8 101C681.3 101 666.7 101 652.2 101C637.7 101 623.3 101 608.8 101C594.3 101 579.7 101 565.2 101C550.7 101 536.3 101 521.8 101C507.3 101 492.7 101 478.2 101C463.7 101 449.3 101 434.8 101C420.3 101 405.7 101 391.2 101C376.7 101 362.3 101 347.8 101C333.3 101 318.7 101 304.2 101C289.7 101 275.3 101 260.8 101C246.3 101 231.7 101 217.2 101C202.7 101 188.3 101 173.8 101C159.3 101 144.7 101 130.2 101C115.7 101 101.3 101 86.8 101C72.3 101 57.7 101 43.2 101C28.7 101 14.3 101 7.2 101L0 101Z" fill="#63788b"></path><path d="M0 68L7.2 68.3C14.3 68.7 28.7 69.3 43.2 70.3C57.7 71.3 72.3 72.7 86.8 72C101.3 71.3 115.7 68.7 130.2 69C144.7 69.3 159.3 72.7 173.8 73.7C188.3 74.7 202.7 73.3 217.2 73.5C231.7 73.7 246.3 75.3 260.8 74C275.3 72.7 289.7 68.3 304.2 67.5C318.7 66.7 333.3 69.3 347.8 70.3C362.3 71.3 376.7 70.7 391.2 70.8C405.7 71 420.3 72 434.8 71.5C449.3 71 463.7 69 478.2 67.7C492.7 66.3 507.3 65.7 521.8 66C536.3 66.3 550.7 67.7 565.2 67.2C579.7 66.7 594.3 64.3 608.8 64.7C623.3 65 637.7 68 652.2 68.3C666.7 68.7 681.3 66.3 695.8 64.8C710.3 63.3 724.7 62.7 739.2 65.8C753.7 69 768.3 76 782.8 78.2C797.3 80.3 811.7 77.7 826.2 74.3C840.7 71 855.3 67 869.8 66.8C884.3 66.7 898.7 70.3 913.2 71.5C927.7 72.7 942.3 71.3 956.8 69.7C971.3 68 985.7 66 992.8 65L1000 64L1000 101L992.8 101C985.7 101 971.3 101 956.8 101C942.3 101 927.7 101 913.2 101C898.7 101 884.3 101 869.8 101C855.3 101 840.7 101 826.2 101C811.7 101 797.3 101 782.8 101C768.3 101 753.7 101 739.2 101C724.7 101 710.3 101 695.8 101C681.3 101 666.7 101 652.2 101C637.7 101 623.3 101 608.8 101C594.3 101 579.7 101 565.2 101C550.7 101 536.3 101 521.8 101C507.3 101 492.7 101 478.2 101C463.7 101 449.3 101 434.8 101C420.3 101 405.7 101 391.2 101C376.7 101 362.3 101 347.8 101C333.3 101 318.7 101 304.2 101C289.7 101 275.3 101 260.8 101C246.3 101 231.7 101 217.2 101C202.7 101 188.3 101 173.8 101C159.3 101 144.7 101 130.2 101C115.7 101 101.3 101 86.8 101C72.3 101 57.7 101 43.2 101C28.7 101 14.3 101 7.2 101L0 101Z" fill="#4e667c"></path><path d="M0 76L7.2 77.2C14.3 78.3 28.7 80.7 43.2 82.3C57.7 84 72.3 85 86.8 84.2C101.3 83.3 115.7 80.7 130.2 80.2C144.7 79.7 159.3 81.3 173.8 80.8C188.3 80.3 202.7 77.7 217.2 77C231.7 76.3 246.3 77.7 260.8 77.5C275.3 77.3 289.7 75.7 304.2 76.2C318.7 76.7 333.3 79.3 347.8 78.5C362.3 77.7 376.7 73.3 391.2 72.2C405.7 71 420.3 73 434.8 74.7C449.3 76.3 463.7 77.7 478.2 78.8C492.7 80 507.3 81 521.8 79.7C536.3 78.3 550.7 74.7 565.2 75C579.7 75.3 594.3 79.7 608.8 81.3C623.3 83 637.7 82 652.2 81.3C666.7 80.7 681.3 80.3 695.8 80.7C710.3 81 724.7 82 739.2 80.7C753.7 79.3 768.3 75.7 782.8 76C797.3 76.3 811.7 80.7 826.2 81.7C840.7 82.7 855.3 80.3 869.8 80.2C884.3 80 898.7 82 913.2 81.3C927.7 80.7 942.3 77.3 956.8 75.3C971.3 73.3 985.7 72.7 992.8 72.3L1000 72L1000 101L992.8 101C985.7 101 971.3 101 956.8 101C942.3 101 927.7 101 913.2 101C898.7 101 884.3 101 869.8 101C855.3 101 840.7 101 826.2 101C811.7 101 797.3 101 782.8 101C768.3 101 753.7 101 739.2 101C724.7 101 710.3 101 695.8 101C681.3 101 666.7 101 652.2 101C637.7 101 623.3 101 608.8 101C594.3 101 579.7 101 565.2 101C550.7 101 536.3 101 521.8 101C507.3 101 492.7 101 478.2 101C463.7 101 449.3 101 434.8 101C420.3 101 405.7 101 391.2 101C376.7 101 362.3 101 347.8 101C333.3 101 318.7 101 304.2 101C289.7 101 275.3 101 260.8 101C246.3 101 231.7 101 217.2 101C202.7 101 188.3 101 173.8 101C159.3 101 144.7 101 130.2 101C115.7 101 101.3 101 86.8 101C72.3 101 57.7 101 43.2 101C28.7 101 14.3 101 7.2 101L0 101Z" fill="#38556d"></path><path d="M0 88L7.2 88.3C14.3 88.7 28.7 89.3 43.2 87.8C57.7 86.3 72.3 82.7 86.8 81.2C101.3 79.7 115.7 80.3 130.2 81.2C144.7 82 159.3 83 173.8 82.7C188.3 82.3 202.7 80.7 217.2 82.2C231.7 83.7 246.3 88.3 260.8 89.2C275.3 90 289.7 87 304.2 86.7C318.7 86.3 333.3 88.7 347.8 88.3C362.3 88 376.7 85 391.2 85.2C405.7 85.3 420.3 88.7 434.8 87.8C449.3 87 463.7 82 478.2 81.8C492.7 81.7 507.3 86.3 521.8 88.7C536.3 91 550.7 91 565.2 89C579.7 87 594.3 83 608.8 83.3C623.3 83.7 637.7 88.3 652.2 89.2C666.7 90 681.3 87 695.8 86.7C710.3 86.3 724.7 88.7 739.2 89.8C753.7 91 768.3 91 782.8 89.8C797.3 88.7 811.7 86.3 826.2 85.2C840.7 84 855.3 84 869.8 84.7C884.3 85.3 898.7 86.7 913.2 88C927.7 89.3 942.3 90.7 956.8 91C971.3 91.3 985.7 90.7 992.8 90.3L1000 90L1000 101L992.8 101C985.7 101 971.3 101 956.8 101C942.3 101 927.7 101 913.2 101C898.7 101 884.3 101 869.8 101C855.3 101 840.7 101 826.2 101C811.7 101 797.3 101 782.8 101C768.3 101 753.7 101 739.2 101C724.7 101 710.3 101 695.8 101C681.3 101 666.7 101 652.2 101C637.7 101 623.3 101 608.8 101C594.3 101 579.7 101 565.2 101C550.7 101 536.3 101 521.8 101C507.3 101 492.7 101 478.2 101C463.7 101 449.3 101 434.8 101C420.3 101 405.7 101 391.2 101C376.7 101 362.3 101 347.8 101C333.3 101 318.7 101 304.2 101C289.7 101 275.3 101 260.8 101C246.3 101 231.7 101 217.2 101C202.7 101 188.3 101 173.8 101C159.3 101 144.7 101 130.2 101C115.7 101 101.3 101 86.8 101C72.3 101 57.7 101 43.2 101C28.7 101 14.3 101 7.2 101L0 101Z" fill="#21455e"></path><path d="M0 85L7.2 86.5C14.3 88 28.7 91 43.2 91C57.7 91 72.3 88 86.8 88.7C101.3 89.3 115.7 93.7 130.2 95C144.7 96.3 159.3 94.7 173.8 92.7C188.3 90.7 202.7 88.3 217.2 87.3C231.7 86.3 246.3 86.7 260.8 88.5C275.3 90.3 289.7 93.7 304.2 95.7C318.7 97.7 333.3 98.3 347.8 97.3C362.3 96.3 376.7 93.7 391.2 93.2C405.7 92.7 420.3 94.3 434.8 94C449.3 93.7 463.7 91.3 478.2 90.7C492.7 90 507.3 91 521.8 92.5C536.3 94 550.7 96 565.2 95.2C579.7 94.3 594.3 90.7 608.8 90.7C623.3 90.7 637.7 94.3 652.2 93.8C666.7 93.3 681.3 88.7 695.8 87.5C710.3 86.3 724.7 88.7 739.2 90C753.7 91.3 768.3 91.7 782.8 91.8C797.3 92 811.7 92 826.2 91.8C840.7 91.7 855.3 91.3 869.8 91.2C884.3 91 898.7 91 913.2 91.7C927.7 92.3 942.3 93.7 956.8 94.2C971.3 94.7 985.7 94.3 992.8 94.2L1000 94L1000 101L992.8 101C985.7 101 971.3 101 956.8 101C942.3 101 927.7 101 913.2 101C898.7 101 884.3 101 869.8 101C855.3 101 840.7 101 826.2 101C811.7 101 797.3 101 782.8 101C768.3 101 753.7 101 739.2 101C724.7 101 710.3 101 695.8 101C681.3 101 666.7 101 652.2 101C637.7 101 623.3 101 608.8 101C594.3 101 579.7 101 565.2 101C550.7 101 536.3 101 521.8 101C507.3 101 492.7 101 478.2 101C463.7 101 449.3 101 434.8 101C420.3 101 405.7 101 391.2 101C376.7 101 362.3 101 347.8 101C333.3 101 318.7 101 304.2 101C289.7 101 275.3 101 260.8 101C246.3 101 231.7 101 217.2 101C202.7 101 188.3 101 173.8 101C159.3 101 144.7 101 130.2 101C115.7 101 101.3 101 86.8 101C72.3 101 57.7 101 43.2 101C28.7 101 14.3 101 7.2 101L0 101Z" fill="#003550"></path></svg>