<svg id="visual" viewBox="0 0 1000 70" width="1000" height="70" xmlns="http://www.w3.org/2000/svg" xmlns:xlink="http://www.w3.org/1999/xlink" version="1.1"><path d="M0 19L43 19L43 7L87 7L87 18L130 18L130 12L174 12L174 11L217 11L217 10L261 10L261 10L304 10L304 14L348 14L348 23L391 23L391 19L435 19L435 16L478 16L478 21L522 21L522 20L565 20L565 17L609 17L609 23L652 23L652 16L696 16L696 11L739 11L739 16L783 16L783 15L826 15L826 9L870 9L870 14L913 14L913 11L957 11L957 21L1000 21L1000 21L1000 0L1000 0L957 0L957 0L913 0L913 0L870 0L870 0L826 0L826 0L783 0L783 0L739 0L739 0L696 0L696 0L652 0L652 0L609 0L609 0L565 0L565 0L522 0L522 0L478 0L478 0L435 0L435 0L391 0L391 0L348 0L348 0L304 0L304 0L261 0L261 0L217 0L217 0L174 0L174 0L130 0L130 0L87 0L87 0L43 0L43 0L0 0Z" fill="#ffffff"></path><path d="M0 44L43 44L43 28L87 28L87 28L130 28L130 34L174 34L174 32L217 32L217 31L261 31L261 44L304 44L304 44L348 44L348 47L391 47L391 35L435 35L435 47L478 47L478 35L522 35L522 44L565 44L565 45L609 45L609 42L652 42L652 44L696 44L696 35L739 35L739 45L783 45L783 36L826 36L826 48L870 48L870 28L913 28L913 36L957 36L957 36L1000 36L1000 36L1000 19L1000 19L957 19L957 9L913 9L913 12L870 12L870 7L826 7L826 13L783 13L783 14L739 14L739 9L696 9L696 14L652 14L652 21L609 21L609 15L565 15L565 18L522 18L522 19L478 19L478 14L435 14L435 17L391 17L391 21L348 21L348 12L304 12L304 8L261 8L261 8L217 8L217 9L174 9L174 10L130 10L130 16L87 16L87 5L43 5L43 17L0 17Z" fill="#a5a6ac"></path><path d="M0 56L43 56L43 56L87 56L87 57L130 57L130 55L174 55L174 63L217 63L217 63L261 63L261 56L304 56L304 58L348 58L348 63L391 63L391 65L435 65L435 64L478 64L478 65L522 65L522 61L565 61L565 63L609 63L609 63L652 63L652 63L696 63L696 61L739 61L739 58L783 58L783 59L826 59L826 65L870 65L870 63L913 63L913 64L957 64L957 58L1000 58L1000 61L1000 34L1000 34L957 34L957 34L913 34L913 26L870 26L870 46L826 46L826 34L783 34L783 43L739 43L739 33L696 33L696 42L652 42L652 40L609 40L609 43L565 43L565 42L522 42L522 33L478 33L478 45L435 45L435 33L391 33L391 45L348 45L348 42L304 42L304 42L261 42L261 29L217 29L217 30L174 30L174 32L130 32L130 26L87 26L87 26L43 26L43 42L0 42Z" fill="#535560"></path><path d="M0 71L43 71L43 71L87 71L87 71L130 71L130 71L174 71L174 71L217 71L217 71L261 71L261 71L304 71L304 71L348 71L348 71L391 71L391 71L435 71L435 71L478 71L478 71L522 71L522 71L565 71L565 71L609 71L609 71L652 71L652 71L696 71L696 71L739 71L739 71L783 71L783 71L826 71L826 71L870 71L870 71L913 71L913 71L957 71L957 71L1000 71L1000 71L1000 59L1000 56L957 56L957 62L913 62L913 61L870 61L870 63L826 63L826 57L783 57L783 56L739 56L739 59L696 59L696 61L652 61L652 61L609 61L609 61L565 61L565 59L522 59L522 63L478 63L478 62L435 62L435 63L391 63L391 61L348 61L348 56L304 56L304 54L261 54L261 61L217 61L217 61L174 61L174 53L130 53L130 55L87 55L87 54L43 54L43 54L0 54Z" fill="#0c0f1d"></path></svg>