<svg id="visual" viewBox="0 0 1000 70" width="1000" height="70" xmlns="http://www.w3.org/2000/svg" xmlns:xlink="http://www.w3.org/1999/xlink" version="1.1"><path d="M0 6L43 6L43 9L87 9L87 7L130 7L130 6L174 6L174 8L217 8L217 9L261 9L261 5L304 5L304 14L348 14L348 7L391 7L391 9L435 9L435 14L478 14L478 8L522 8L522 12L565 12L565 8L609 8L609 11L652 11L652 12L696 12L696 12L739 12L739 12L783 12L783 14L826 14L826 12L870 12L870 14L913 14L913 14L957 14L957 7L1000 7L1000 9L1000 0L1000 0L957 0L957 0L913 0L913 0L870 0L870 0L826 0L826 0L783 0L783 0L739 0L739 0L696 0L696 0L652 0L652 0L609 0L609 0L565 0L565 0L522 0L522 0L478 0L478 0L435 0L435 0L391 0L391 0L348 0L348 0L304 0L304 0L261 0L261 0L217 0L217 0L174 0L174 0L130 0L130 0L87 0L87 0L43 0L43 0L0 0Z" fill="#ffffff"></path><path d="M0 23L43 23L43 31L87 31L87 16L130 16L130 32L174 32L174 20L217 20L217 28L261 28L261 17L304 17L304 39L348 39L348 30L391 30L391 33L435 33L435 32L478 32L478 33L522 33L522 36L565 36L565 22L609 22L609 22L652 22L652 38L696 38L696 30L739 30L739 29L783 29L783 27L826 27L826 31L870 31L870 38L913 38L913 23L957 23L957 40L1000 40L1000 31L1000 7L1000 5L957 5L957 12L913 12L913 12L870 12L870 10L826 10L826 12L783 12L783 10L739 10L739 10L696 10L696 10L652 10L652 9L609 9L609 6L565 6L565 10L522 10L522 6L478 6L478 12L435 12L435 7L391 7L391 5L348 5L348 12L304 12L304 3L261 3L261 7L217 7L217 6L174 6L174 4L130 4L130 5L87 5L87 7L43 7L43 4L0 4Z" fill="#c8c9cc"></path><path d="M0 45L43 45L43 46L87 46L87 40L130 40L130 40L174 40L174 42L217 42L217 50L261 50L261 37L304 37L304 51L348 51L348 54L391 54L391 41L435 41L435 44L478 44L478 42L522 42L522 49L565 49L565 40L609 40L609 44L652 44L652 49L696 49L696 46L739 46L739 43L783 43L783 43L826 43L826 52L870 52L870 49L913 49L913 44L957 44L957 52L1000 52L1000 42L1000 29L1000 38L957 38L957 21L913 21L913 36L870 36L870 29L826 29L826 25L783 25L783 27L739 27L739 28L696 28L696 36L652 36L652 20L609 20L609 20L565 20L565 34L522 34L522 31L478 31L478 30L435 30L435 31L391 31L391 28L348 28L348 37L304 37L304 15L261 15L261 26L217 26L217 18L174 18L174 30L130 30L130 14L87 14L87 29L43 29L43 21L0 21Z" fill="#94959c"></path><path d="M0 52L43 52L43 56L87 56L87 49L130 49L130 49L174 49L174 47L217 47L217 56L261 56L261 44L304 44L304 62L348 62L348 59L391 59L391 50L435 50L435 50L478 50L478 49L522 49L522 59L565 59L565 49L609 49L609 52L652 52L652 58L696 58L696 53L739 53L739 54L783 54L783 54L826 54L826 61L870 61L870 54L913 54L913 52L957 52L957 56L1000 56L1000 49L1000 40L1000 50L957 50L957 42L913 42L913 47L870 47L870 50L826 50L826 41L783 41L783 41L739 41L739 44L696 44L696 47L652 47L652 42L609 42L609 38L565 38L565 47L522 47L522 40L478 40L478 42L435 42L435 39L391 39L391 52L348 52L348 49L304 49L304 35L261 35L261 48L217 48L217 40L174 40L174 38L130 38L130 38L87 38L87 44L43 44L43 43L0 43Z" fill="#63646e"></path><path d="M0 58L43 58L43 63L87 63L87 58L130 58L130 58L174 58L174 52L217 52L217 65L261 65L261 54L304 54L304 66L348 66L348 63L391 63L391 54L435 54L435 58L478 58L478 54L522 54L522 63L565 63L565 55L609 55L609 56L652 56L652 63L696 63L696 58L739 58L739 63L783 63L783 57L826 57L826 65L870 65L870 58L913 58L913 60L957 60L957 61L1000 61L1000 56L1000 47L1000 54L957 54L957 50L913 50L913 52L870 52L870 59L826 59L826 52L783 52L783 52L739 52L739 51L696 51L696 56L652 56L652 50L609 50L609 47L565 47L565 57L522 57L522 47L478 47L478 48L435 48L435 48L391 48L391 57L348 57L348 60L304 60L304 42L261 42L261 54L217 54L217 45L174 45L174 47L130 47L130 47L87 47L87 54L43 54L43 50L0 50Z" fill="#363844"></path><path d="M0 71L43 71L43 71L87 71L87 71L130 71L130 71L174 71L174 71L217 71L217 71L261 71L261 71L304 71L304 71L348 71L348 71L391 71L391 71L435 71L435 71L478 71L478 71L522 71L522 71L565 71L565 71L609 71L609 71L652 71L652 71L696 71L696 71L739 71L739 71L783 71L783 71L826 71L826 71L870 71L870 71L913 71L913 71L957 71L957 71L1000 71L1000 71L1000 54L1000 59L957 59L957 58L913 58L913 56L870 56L870 63L826 63L826 55L783 55L783 61L739 61L739 56L696 56L696 61L652 61L652 54L609 54L609 53L565 53L565 61L522 61L522 52L478 52L478 56L435 56L435 52L391 52L391 61L348 61L348 64L304 64L304 52L261 52L261 63L217 63L217 50L174 50L174 56L130 56L130 56L87 56L87 61L43 61L43 56L0 56Z" fill="#0c0f1d"></path></svg>