<svg version="1.1" viewBox="0.0 0.0 1008.1496062992126 100.0" fill="none" stroke="none" stroke-linecap="square" stroke-miterlimit="10" xmlns:xlink="http://www.w3.org/1999/xlink" xmlns="http://www.w3.org/2000/svg"><clipPath id="p.0"><path d="m0 0l1008.1496 0l0 100.0l-1008.1496 0l0 -100.0z" clip-rule="nonzero"/></clipPath><g clip-path="url(#p.0)"><path fill="#ffffff" d="m0 0l1008.1496 0l0 100.0l-1008.1496 0z" fill-rule="evenodd"/><path fill="#e7e7f0" d="m-6.1456113 -48.843834c6.9081364 -48.595802 13.816273 48.595802 20.72441 0c6.9081364 -48.595802 13.816273 48.595802 20.72441 0l0 87.47244c-6.9081364 48.595802 -13.816273 -48.595802 -20.72441 0c-6.908137 48.595802 -13.816273 -48.595802 -20.72441 0z" fill-rule="evenodd"/><path fill="#e7e7f0" d="m35.303207 -48.843834c6.9081383 -48.595802 13.816273 48.595802 20.724411 0c6.9081345 -48.595802 13.816269 48.595802 20.724411 0l0 87.47244c-6.908142 48.595802 -13.816277 -48.595802 -20.724411 0c-6.9081383 48.595802 -13.816273 -48.595802 -20.724411 0z" fill-rule="evenodd"/><path fill="#e7e7f0" d="m76.75203 -48.843834c6.9081345 -48.595802 13.816269 48.595802 20.724403 0c6.908142 -48.595802 13.816277 48.595802 20.724411 0l0 87.47244c-6.9081345 48.595802 -13.816269 -48.595802 -20.724411 0c-6.9081345 48.595802 -13.816269 -48.595802 -20.724403 0z" fill-rule="evenodd"/><path fill="#e7e7f0" d="m118.20084 -48.843834c6.9081345 -48.595802 13.816277 48.595802 20.724419 0c6.908127 -48.595802 13.816269 48.595802 20.724396 0l0 87.47244c-6.908127 48.595802 -13.816269 -48.595802 -20.724396 0c-6.908142 48.595802 -13.816284 -48.595802 -20.724419 0z" fill-rule="evenodd"/><path fill="#e7e7f0" d="m159.64966 -48.843834c6.908142 -48.595802 13.816284 48.595802 20.724411 0c6.908142 -48.595802 13.816284 48.595802 20.724411 0l0 87.47244c-6.908127 48.595802 -13.816269 -48.595802 -20.724411 0c-6.908127 48.595802 -13.816269 -48.595802 -20.724411 0z" fill-rule="evenodd"/><path fill="#e7e7f0" d="m201.09848 -48.843834c6.908142 -48.595802 13.816269 48.595802 20.724411 0c6.908142 -48.595802 13.816269 48.595802 20.724411 0l0 87.47244c-6.908142 48.595802 -13.816269 -48.595802 -20.724411 0c-6.908142 48.595802 -13.816269 -48.595802 -20.724411 0z" fill-rule="evenodd"/><path fill="#e7e7f0" d="m242.5473 -48.843834c6.908142 -48.595802 13.816284 48.595802 20.724396 0c6.908142 -48.595802 13.816284 48.595802 20.724426 0l0 87.47244c-6.908142 48.595802 -13.816284 -48.595802 -20.724426 0c-6.9081116 48.595802 -13.816254 -48.595802 -20.724396 0z" fill-rule="evenodd"/><path fill="#e7e7f0" d="m283.99612 -48.843834c6.908142 -48.595802 13.816284 48.595802 20.724396 0c6.908142 -48.595802 13.816284 48.595802 20.724426 0l0 87.47244c-6.908142 48.595802 -13.816284 -48.595802 -20.724426 0c-6.9081116 48.595802 -13.816254 -48.595802 -20.724396 0z" fill-rule="evenodd"/><path fill="#e7e7f0" d="m325.44495 -48.843834c6.908142 -48.595802 13.816254 48.595802 20.724396 0c6.908142 -48.595802 13.816284 48.595802 20.724426 0l0 87.47244c-6.908142 48.595802 -13.816284 -48.595802 -20.724426 0c-6.908142 48.595802 -13.816254 -48.595802 -20.724396 0z" fill-rule="evenodd"/><path fill="#e7e7f0" d="m366.89377 -48.843834c6.908142 -48.595802 13.816254 48.595802 20.724396 0c6.908142 -48.595802 13.816284 48.595802 20.724426 0l0 87.47244c-6.908142 48.595802 -13.816284 -48.595802 -20.724426 0c-6.908142 48.595802 -13.816254 -48.595802 -20.724396 0z" fill-rule="evenodd"/><path fill="#e7e7f0" d="m408.3426 -48.843834c6.9081116 -48.595802 13.816254 48.595802 20.724396 0c6.908142 -48.595802 13.816284 48.595802 20.724396 0l0 87.47244c-6.9081116 48.595802 -13.816254 -48.595802 -20.724396 0c-6.908142 48.595802 -13.816284 -48.595802 -20.724396 0z" fill-rule="evenodd"/><path fill="#e7e7f0" d="m449.79138 -48.843834c6.908142 -48.595802 13.816284 48.595802 20.724426 0c6.908142 -48.595802 13.816284 48.595802 20.724396 0l0 87.47244c-6.9081116 48.595802 -13.816254 -48.595802 -20.724396 0c-6.908142 48.595802 -13.816284 -48.595802 -20.724426 0z" fill-rule="evenodd"/><path fill="#e7e7f0" d="m491.2402 -48.843834c6.908142 -48.595802 13.816284 48.595802 20.724426 0c6.9081116 -48.595802 13.816254 48.595802 20.724396 0l0 87.47244c-6.908142 48.595802 -13.816284 -48.595802 -20.724396 0c-6.908142 48.595802 -13.816284 -48.595802 -20.724426 0z" fill-rule="evenodd"/><path fill="#e7e7f0" d="m532.689 -48.843834c6.908142 -48.595802 13.816284 48.595802 20.724426 0c6.908142 -48.595802 13.816284 48.595802 20.724426 0l0 87.47244c-6.908142 48.595802 -13.816284 -48.595802 -20.724426 0c-6.908142 48.595802 -13.816284 -48.595802 -20.724426 0z" fill-rule="evenodd"/><path fill="#e7e7f0" d="m574.1379 -48.843834c6.908081 -48.595802 13.816223 48.595802 20.724365 0c6.908142 -48.595802 13.816284 48.595802 20.724426 0l0 87.47244c-6.908142 48.595802 -13.816284 -48.595802 -20.724426 0c-6.908142 48.595802 -13.816284 -48.595802 -20.724365 0z" fill-rule="evenodd"/><path fill="#e7e7f0" d="m615.5867 -48.843834c6.908142 -48.595802 13.816284 48.595802 20.724426 0c6.908142 -48.595802 13.816284 48.595802 20.724365 0l0 87.47244c-6.908081 48.595802 -13.816223 -48.595802 -20.724365 0c-6.908142 48.595802 -13.816284 -48.595802 -20.724426 0z" fill-rule="evenodd"/><path fill="#e7e7f0" d="m657.03546 -48.843834c6.908142 -48.595802 13.816284 48.595802 20.724426 0c6.908142 -48.595802 13.816284 48.595802 20.724426 0l0 87.47244c-6.908142 48.595802 -13.816284 -48.595802 -20.724426 0c-6.908142 48.595802 -13.816284 -48.595802 -20.724426 0z" fill-rule="evenodd"/><path fill="#e7e7f0" d="m698.4843 -48.843834c6.908142 -48.595802 13.816284 48.595802 20.724426 0c6.908142 -48.595802 13.816223 48.595802 20.724365 0l0 87.47244c-6.908142 48.595802 -13.816223 -48.595802 -20.724365 0c-6.908142 48.595802 -13.816284 -48.595802 -20.724426 0z" fill-rule="evenodd"/><path fill="#e7e7f0" d="m739.9331 -48.843834c6.908142 -48.595802 13.816284 48.595802 20.724426 0c6.908142 -48.595802 13.816284 48.595802 20.724426 0l0 87.47244c-6.908142 48.595802 -13.816284 -48.595802 -20.724426 0c-6.908142 48.595802 -13.816284 -48.595802 -20.724426 0z" fill-rule="evenodd"/><path fill="#e7e7f0" d="m781.38196 -48.843834c6.908142 -48.595802 13.816284 48.595802 20.724426 0c6.908081 -48.595802 13.816223 48.595802 20.724365 0l0 87.47244c-6.908142 48.595802 -13.816284 -48.595802 -20.724365 0c-6.908142 48.595802 -13.816284 -48.595802 -20.724426 0z" fill-rule="evenodd"/><path fill="#e7e7f0" d="m822.83075 -48.843834c6.908142 -48.595802 13.816284 48.595802 20.724426 0c6.908142 -48.595802 13.816284 48.595802 20.724426 0l0 87.47244c-6.908142 48.595802 -13.816284 -48.595802 -20.724426 0c-6.908142 48.595802 -13.816284 -48.595802 -20.724426 0z" fill-rule="evenodd"/><path fill="#e7e7f0" d="m864.2796 -48.843834c6.908142 -48.595802 13.816284 48.595802 20.724365 0c6.908142 -48.595802 13.816284 48.595802 20.724426 0l0 87.47244c-6.908142 48.595802 -13.816284 -48.595802 -20.724426 0c-6.908081 48.595802 -13.816223 -48.595802 -20.724365 0z" fill-rule="evenodd"/><path fill="#e7e7f0" d="m905.7284 -48.843834c6.908142 -48.595802 13.816284 48.595802 20.724426 0c6.908142 -48.595802 13.816284 48.595802 20.724426 0l0 87.47244c-6.908142 48.595802 -13.816284 -48.595802 -20.724426 0c-6.908142 48.595802 -13.816284 -48.595802 -20.724426 0z" fill-rule="evenodd"/><path fill="#e7e7f0" d="m947.17725 -48.843834c6.908142 -48.595802 13.816223 48.595802 20.724365 0c6.908142 -48.595802 13.816284 48.595802 20.724426 0l0 87.47244c-6.908142 48.595802 -13.816284 -48.595802 -20.724426 0c-6.908142 48.595802 -13.816223 -48.595802 -20.724365 0z" fill-rule="evenodd"/><path fill="#e7e7f0" d="m988.62604 -48.843834c6.908142 -48.595802 13.816284 48.595802 20.724426 0c6.908142 -48.595802 13.816284 48.595802 20.724365 0l0 87.47244c-6.908081 48.595802 -13.816223 -48.595802 -20.724365 0c-6.908142 48.595802 -13.816284 -48.595802 -20.724426 0z" fill-rule="evenodd"/></g></svg>