<svg id="visual" viewBox="0 0 1000 70" width="1000" height="70" xmlns="http://www.w3.org/2000/svg" xmlns:xlink="http://www.w3.org/1999/xlink" version="1.1"><path d="M0 37L43 37L43 22L87 22L87 37L130 37L130 35L174 35L174 30L217 30L217 44L261 44L261 24L304 24L304 16L348 16L348 21L391 21L391 35L435 35L435 24L478 24L478 29L522 29L522 43L565 43L565 29L609 29L609 23L652 23L652 28L696 28L696 14L739 14L739 29L783 29L783 15L826 15L826 28L870 28L870 37L913 37L913 15L957 15L957 26L1000 26L1000 26L1000 0L1000 0L957 0L957 0L913 0L913 0L870 0L870 0L826 0L826 0L783 0L783 0L739 0L739 0L696 0L696 0L652 0L652 0L609 0L609 0L565 0L565 0L522 0L522 0L478 0L478 0L435 0L435 0L391 0L391 0L348 0L348 0L304 0L304 0L261 0L261 0L217 0L217 0L174 0L174 0L130 0L130 0L87 0L87 0L43 0L43 0L0 0Z" fill="#e7e7f0"></path><path d="M0 55L43 55L43 34L87 34L87 57L130 57L130 47L174 47L174 49L217 49L217 54L261 54L261 48L304 48L304 25L348 25L348 42L391 42L391 50L435 50L435 40L478 40L478 54L522 54L522 56L565 56L565 47L609 47L609 47L652 47L652 42L696 42L696 37L739 37L739 41L783 41L783 36L826 36L826 50L870 50L870 58L913 58L913 27L957 27L957 36L1000 36L1000 47L1000 24L1000 24L957 24L957 13L913 13L913 35L870 35L870 26L826 26L826 13L783 13L783 27L739 27L739 12L696 12L696 26L652 26L652 21L609 21L609 27L565 27L565 41L522 41L522 27L478 27L478 22L435 22L435 33L391 33L391 19L348 19L348 14L304 14L304 22L261 22L261 42L217 42L217 28L174 28L174 33L130 33L130 35L87 35L87 20L43 20L43 35L0 35Z" fill="#f3f3f7"></path><path d="M0 71L43 71L43 71L87 71L87 71L130 71L130 71L174 71L174 71L217 71L217 71L261 71L261 71L304 71L304 71L348 71L348 71L391 71L391 71L435 71L435 71L478 71L478 71L522 71L522 71L565 71L565 71L609 71L609 71L652 71L652 71L696 71L696 71L739 71L739 71L783 71L783 71L826 71L826 71L870 71L870 71L913 71L913 71L957 71L957 71L1000 71L1000 71L1000 45L1000 34L957 34L957 25L913 25L913 56L870 56L870 48L826 48L826 34L783 34L783 39L739 39L739 35L696 35L696 40L652 40L652 45L609 45L609 45L565 45L565 54L522 54L522 52L478 52L478 38L435 38L435 48L391 48L391 40L348 40L348 23L304 23L304 46L261 46L261 52L217 52L217 47L174 47L174 45L130 45L130 55L87 55L87 32L43 32L43 53L0 53Z" fill="#ffffff"></path></svg>