
<svg version="1.1" viewBox="0.0 0.0 576.0 576.0" fill="none" stroke="none" stroke-linecap="square" stroke-miterlimit="10" xmlns:xlink="http://www.w3.org/1999/xlink" xmlns="http://www.w3.org/2000/svg"><clipPath id="p.0"><path d="m0 0l576.0 0l0 576.0l-576.0 0l0 -576.0z" clip-rule="nonzero"/></clipPath><g clip-path="url(#p.0)"><path fill="#000000" fill-opacity="0.0" d="m0 0l576.0 0l0 576.0l-576.0 0z" fill-rule="evenodd"/><path fill="#000000" fill-opacity="0.0" d="m-20.93438 60.7979l699.9685 0l0 733.19684l-699.9685 0z" fill-rule="evenodd"/><path fill="#35ac55" d="m140.76874 424.17416q-30.312492 0 -55.531242 -9.859375q-25.203125 -9.875 -43.84375 -27.765625q-18.625 -17.90625 -28.671875 -42.375q-10.046875 -24.484375 -10.046875 -53.34375q0 -29.234375 10.046875 -53.51564q10.046876 -24.296875 28.671875 -42.203125q18.640625 -17.90625 43.84375 -27.765625q25.21875 -9.859375 55.171867 -9.859375q30.3125 0 55.34375 9.859375q25.03125 9.859375 43.65625 27.765625q18.640625 17.90625 28.6875 42.203125q10.046875 24.281265 10.046875 53.14064q0 29.234375 -10.046875 53.71875q-10.046875 24.46875 -28.6875 42.375q-18.625 17.890625 -43.65625 27.765625q-25.03125 9.859375 -54.984375 9.859375zm-0.359375 -73.0625q12.421875 0 22.828125 -4.390625q10.421875 -4.390625 18.265625 -12.609375q7.859375 -8.21875 12.0625 -19.171875q4.203125 -10.96875 4.203125 -24.109375q0 -13.15625 -4.203125 -24.109375q-4.203125 -10.968765 -12.0625 -19.187515q-7.84375 -8.21875 -18.265625 -12.59375q-10.40625 -4.390625 -22.828125 -4.390625q-12.421867 0 -22.843742 4.390625q-10.40625 4.375 -18.265625 12.59375q-7.84375 8.21875 -12.046875 19.187515q-4.203125 10.953125 -4.203125 24.109375q0 13.140625 4.203125 24.109375q4.203125 10.953125 12.046875 19.171875q7.859375 8.21875 18.265625 12.609375q10.421875 4.390625 22.843742 4.390625zm236.3711 -3.296875l-26.671875 -58.453125l121.65625 -124.57814l89.5 0l-184.48438 183.03127zm-54.8125 72.703125l0 -255.73439l78.921875 0l0 255.73439l-78.921875 0zm160.39062 0l-92.796875 -120.921875l51.140625 -44.20314l131.15625 165.12502l-89.5 0z" fill-rule="nonzero"/></g></svg>