<svg id="visual" viewBox="0 0 500 60" width="500" height="60" xmlns="http://www.w3.org/2000/svg" xmlns:xlink="http://www.w3.org/1999/xlink" version="1.1"><rect x="0" y="0" width="500" height="60" fill="#171863"></rect><path d="M0 31L2.7 32C5.3 33 10.7 35 16 35.3C21.3 35.7 26.7 34.3 32 36.3C37.3 38.3 42.7 43.7 48.2 40.5C53.7 37.3 59.3 25.7 64.8 24.7C70.3 23.7 75.7 33.3 81 38.8C86.3 44.3 91.7 45.7 97 46.2C102.3 46.7 107.7 46.3 113 44.2C118.3 42 123.7 38 129 33C134.3 28 139.7 22 145 17.8C150.3 13.7 155.7 11.3 161 14C166.3 16.7 171.7 24.3 177.2 29.2C182.7 34 188.3 36 193.8 35C199.3 34 204.7 30 210 29.8C215.3 29.7 220.7 33.3 226 32.2C231.3 31 236.7 25 242 25.7C247.3 26.3 252.7 33.7 258 35.7C263.3 37.7 268.7 34.3 274 33.5C279.3 32.7 284.7 34.3 290 37C295.3 39.7 300.7 43.3 306.2 45.5C311.7 47.7 317.3 48.3 322.8 47.3C328.3 46.3 333.7 43.7 339 38.3C344.3 33 349.7 25 355 22.8C360.3 20.7 365.7 24.3 371 29.2C376.3 34 381.7 40 387 39.2C392.3 38.3 397.7 30.7 403 29.3C408.3 28 413.7 33 419 32.3C424.3 31.7 429.7 25.3 435.2 25.3C440.7 25.3 446.3 31.7 451.8 35.8C457.3 40 462.7 42 468 37.5C473.3 33 478.7 22 484 21.2C489.3 20.3 494.7 29.7 497.3 34.3L500 39L500 0L497.3 0C494.7 0 489.3 0 484 0C478.7 0 473.3 0 468 0C462.7 0 457.3 0 451.8 0C446.3 0 440.7 0 435.2 0C429.7 0 424.3 0 419 0C413.7 0 408.3 0 403 0C397.7 0 392.3 0 387 0C381.7 0 376.3 0 371 0C365.7 0 360.3 0 355 0C349.7 0 344.3 0 339 0C333.7 0 328.3 0 322.8 0C317.3 0 311.7 0 306.2 0C300.7 0 295.3 0 290 0C284.7 0 279.3 0 274 0C268.7 0 263.3 0 258 0C252.7 0 247.3 0 242 0C236.7 0 231.3 0 226 0C220.7 0 215.3 0 210 0C204.7 0 199.3 0 193.8 0C188.3 0 182.7 0 177.2 0C171.7 0 166.3 0 161 0C155.7 0 150.3 0 145 0C139.7 0 134.3 0 129 0C123.7 0 118.3 0 113 0C107.7 0 102.3 0 97 0C91.7 0 86.3 0 81 0C75.7 0 70.3 0 64.8 0C59.3 0 53.7 0 48.2 0C42.7 0 37.3 0 32 0C26.7 0 21.3 0 16 0C10.7 0 5.3 0 2.7 0L0 0Z" fill="#e1e8ff" stroke-linecap="round" stroke-linejoin="miter"></path></svg>