<svg id="visual" viewBox="0 0 500 60" width="500" height="60" xmlns="http://www.w3.org/2000/svg" xmlns:xlink="http://www.w3.org/1999/xlink" version="1.1"><rect x="0" y="0" width="500" height="60" fill="#000000"></rect><path d="M0 27L2.7 26C5.3 25 10.7 23 16 22.7C21.3 22.3 26.7 23.7 32 21.7C37.3 19.7 42.7 14.3 48.2 17.5C53.7 20.7 59.3 32.3 64.8 33.3C70.3 34.3 75.7 24.7 81 19.2C86.3 13.7 91.7 12.3 97 11.8C102.3 11.3 107.7 11.7 113 13.8C118.3 16 123.7 20 129 25C134.3 30 139.7 36 145 40.2C150.3 44.3 155.7 46.7 161 44C166.3 41.3 171.7 33.7 177.2 28.8C182.7 24 188.3 22 193.8 23C199.3 24 204.7 28 210 28.2C215.3 28.3 220.7 24.7 226 25.8C231.3 27 236.7 33 242 32.3C247.3 31.7 252.7 24.3 258 22.3C263.3 20.3 268.7 23.7 274 24.5C279.3 25.3 284.7 23.7 290 21C295.3 18.3 300.7 14.7 306.2 12.5C311.7 10.3 317.3 9.7 322.8 10.7C328.3 11.7 333.7 14.3 339 19.7C344.3 25 349.7 33 355 35.2C360.3 37.3 365.7 33.7 371 28.8C376.3 24 381.7 18 387 18.8C392.3 19.7 397.7 27.3 403 28.7C408.3 30 413.7 25 419 25.7C424.3 26.3 429.7 32.7 435.2 32.7C440.7 32.7 446.3 26.3 451.8 22.2C457.3 18 462.7 16 468 20.5C473.3 25 478.7 36 484 36.8C489.3 37.7 494.7 28.3 497.3 23.7L500 19L500 61L497.3 61C494.7 61 489.3 61 484 61C478.7 61 473.3 61 468 61C462.7 61 457.3 61 451.8 61C446.3 61 440.7 61 435.2 61C429.7 61 424.3 61 419 61C413.7 61 408.3 61 403 61C397.7 61 392.3 61 387 61C381.7 61 376.3 61 371 61C365.7 61 360.3 61 355 61C349.7 61 344.3 61 339 61C333.7 61 328.3 61 322.8 61C317.3 61 311.7 61 306.2 61C300.7 61 295.3 61 290 61C284.7 61 279.3 61 274 61C268.7 61 263.3 61 258 61C252.7 61 247.3 61 242 61C236.7 61 231.3 61 226 61C220.7 61 215.3 61 210 61C204.7 61 199.3 61 193.8 61C188.3 61 182.7 61 177.2 61C171.7 61 166.3 61 161 61C155.7 61 150.3 61 145 61C139.7 61 134.3 61 129 61C123.7 61 118.3 61 113 61C107.7 61 102.3 61 97 61C91.7 61 86.3 61 81 61C75.7 61 70.3 61 64.8 61C59.3 61 53.7 61 48.2 61C42.7 61 37.3 61 32 61C26.7 61 21.3 61 16 61C10.7 61 5.3 61 2.7 61L0 61Z" fill="#e1e8ff" stroke-linecap="round" stroke-linejoin="miter"></path></svg>