<?xml version="1.0" encoding="utf-8"?>
<svg viewBox="0 0 500 60" xmlns="http://www.w3.org/2000/svg">
  <g transform="matrix(0.363633, 0, 0, 0.363633, -19.418983, -134.487305)" style="">
    <path style="stroke: rgba(0, 0, 0, 0);" d="M 224.243 494.237 L 276.672 430.214 L 249.856 494.265 L 224.243 494.237 Z" transform="matrix(0.999999, 0.001627, -0.001627, 0.999999, 0.752395, -0.406883)"/>
    <polygon style="stroke: rgba(0, 0, 0, 0);" points="277.463 430.544 331.965 493.503 251.069 494.311"/>
  </g>
  <path d="M -0.566 40.664 L 2.958 40.903 C 6.482 41.144 13.53 41.62 20.476 41.859 C 27.472 42.098 34.319 42.098 41.316 42.026 C 48.262 41.931 55.31 41.787 62.357 41.931 C 69.404 42.098 76.451 42.577 83.398 42.529 C 90.396 42.506 97.241 41.931 104.239 41.979 C 111.184 42.026 118.232 42.648 125.279 43.127 C 132.327 43.605 139.373 43.939 146.32 43.485 C 153.317 43.055 160.162 41.859 167.16 41.907 C 174.107 41.931 181.154 43.222 188.202 43.652 C 195.248 44.083 202.296 43.7 209.242 43.007 C 216.24 42.337 223.086 41.381 230.082 41.334 C 237.029 41.311 244.076 42.17 251.124 42.768 C 258.171 43.366 265.218 43.7 272.166 43.844 C 279.161 44.011 286.007 44.011 293.004 43.724 C 299.951 43.461 306.999 42.888 314.046 42.29 C 321.093 41.692 328.141 41.07 335.087 40.975 C 342.084 40.903 348.93 41.381 355.926 42.148 C 362.874 42.888 369.921 43.939 376.968 43.772 C 384.016 43.605 391.062 42.265 398.01 41.787 C 405.006 41.311 411.852 41.692 418.85 41.692 C 425.795 41.692 432.843 41.311 439.889 41.214 C 446.938 41.144 453.986 41.381 460.931 41.692 C 467.929 42.026 474.774 42.41 481.771 42.457 C 488.719 42.506 495.765 42.17 499.289 42.026 L 502.813 41.859 L 502.813 66.966 L 499.289 66.966 C 495.765 66.966 488.719 66.966 481.771 66.966 C 474.774 66.966 467.929 66.966 460.931 66.966 C 453.986 66.966 446.938 66.966 439.889 66.966 C 432.843 66.966 425.795 66.966 418.85 66.966 C 411.852 66.966 405.006 66.966 398.01 66.966 C 391.062 66.966 384.016 66.966 376.968 66.966 C 369.921 66.966 362.874 66.966 355.926 66.966 C 348.93 66.966 342.084 66.966 335.087 66.966 C 328.141 66.966 321.093 66.966 314.046 66.966 C 306.999 66.966 299.951 66.966 293.004 66.966 C 286.007 66.966 279.161 66.966 272.166 66.966 C 265.218 66.966 258.171 66.966 251.124 66.966 C 244.076 66.966 237.029 66.966 230.082 66.966 C 223.086 66.966 216.24 66.966 209.242 66.966 C 202.296 66.966 195.248 66.966 188.202 66.966 C 181.154 66.966 174.107 66.966 167.16 66.966 C 160.162 66.966 153.317 66.966 146.32 66.966 C 139.373 66.966 132.327 66.966 125.279 66.966 C 118.232 66.966 111.184 66.966 104.239 66.966 C 97.241 66.966 90.396 66.966 83.398 66.966 C 76.451 66.966 69.404 66.966 62.357 66.966 C 55.31 66.966 48.262 66.966 41.316 66.966 C 34.319 66.966 27.472 66.966 20.476 66.966 C 13.53 66.966 6.482 66.966 2.958 66.966 L -0.566 66.966 L -0.566 40.664 Z" fill="#000000" stroke-linecap="round" stroke-linejoin="miter" style=""/>
  <g transform="matrix(0.545782, 0, 0, 0.545782, -29.324623, -224.876709)" style="">
    <path style="stroke: rgba(0, 0, 0, 0);" d="M 224.243 494.237 L 276.672 430.214 L 249.856 494.265 L 224.243 494.237 Z" transform="matrix(0.999999, 0.001627, -0.001627, 0.999999, 0.752395, -0.406883)"/>
    <polygon style="stroke: rgba(0, 0, 0, 0);" points="277.463 430.544 331.965 493.503 251.069 494.311"/>
  </g>
  <g transform="matrix(0.362097, 0, 0, 0.428186, 101.81916, -165.365738)" style="">
    <path style="stroke: rgba(0, 0, 0, 0);" d="M 224.243 494.237 L 276.672 430.214 L 249.856 494.265 L 224.243 494.237 Z" transform="matrix(0.999999, 0.001627, -0.001627, 0.999999, 0.752395, -0.406883)"/>
    <polygon style="stroke: rgba(0, 0, 0, 0);" points="277.463 430.544 331.965 493.503 251.069 494.311"/>
  </g>
  <ellipse style="stroke: rgb(0, 0, 0);" cx="318.963" cy="19.313" rx="4.738" ry="4.625"/>
  <g transform="matrix(0.701876, 0, 0, 0.701876, 164.95015, -10.670043)" style="">
    <g transform="matrix(1, 0, 0, 1, -14.536407, 13.160342)">
      <path d="M 43.555 15.565 L 40.941 15.565 C 40.124 12.643 37.453 10.525 34.284 10.525 C 33.195 10.525 32.164 10.775 31.248 11.223 C 30.639 7.213 27.175 4.138 22.994 4.138 C 18.383 4.138 14.645 7.882 14.645 12.492 C 14.645 13.576 14.852 14.604 15.227 15.567 L 14.849 15.567 C 12.045 15.567 9.757 17.829 9.757 20.633 L 9.757 21.389 C 9.757 23.997 11.888 26.118 14.496 26.118 L 43.681 26.118 C 46.527 26.118 48.839 23.806 48.839 20.961 L 48.839 20.834 C 48.839 17.919 46.47 15.565 43.555 15.565 Z" style="fill: rgba(0, 0, 0, 0.13);"/>
      <path d="M 22.605 23.235 L 20.574 23.235 C 19.94 20.965 17.865 19.319 15.403 19.319 C 14.557 19.319 13.756 19.514 13.044 19.862 C 12.571 16.746 9.88 14.357 6.632 14.357 C 3.05 14.357 0.146 17.266 0.146 20.847 C 0.146 21.69 0.307 22.488 0.598 23.236 L 0.304 23.236 C -1.874 23.236 -3.652 24.994 -3.652 27.172 L -3.652 27.759 C -3.652 29.785 -1.996 31.433 0.03 31.433 L 22.703 31.433 C 24.914 31.433 26.71 29.637 26.71 27.427 L 26.71 27.328 C 26.71 25.063 24.87 23.235 22.605 23.235 Z" style="fill: rgba(0, 0, 0, 0.13);"/>
    </g>
  </g>
  <path d="M 379.032 10.709 C 380.171 12.395 380.779 14.384 380.778 16.418 C 380.778 22.112 376.113 26.726 370.358 26.726 C 368.476 26.729 366.629 26.224 365.011 25.266 C 366.786 28.759 370.439 31.158 374.661 31.158 C 380.625 31.158 385.46 26.376 385.46 20.477 C 385.46 16.117 382.817 12.368 379.032 10.709 Z" fill="#000000" style=""/>
  <path d="M 443.252 42.397 C 442.542 42.394 441.886 42.241 441.565 42.134 C 441.565 42.134 444.471 41.61 444.712 39.476 C 442.505 42.862 440.097 38.767 440.097 38.767 C 440.599 38.907 442.037 39.323 442.997 39.148 C 443.653 39.027 444.294 38.394 444.266 38.403 C 442.701 37.993 440.213 30.583 440.636 29.981 C 441.013 29.521 441.39 29.678 441.767 29.911 C 441.952 31.482 443.407 38.372 445.188 37.816 C 445.188 37.816 445.188 37.816 445.189 37.816 C 445.338 37.761 445.48 37.666 445.488 37.52 C 445.502 37.241 445.334 36.786 445.373 36.47 C 445.466 35.737 445.6 35.481 445.796 35.224 C 446.266 35.505 446.715 36.517 446.807 37.041 C 447.228 36.845 447.903 36.392 448.455 34.707 C 448.743 36.286 448.327 37.531 446.963 38.084 C 447.554 38.355 450.126 36.981 450.439 36.214 C 450.746 37.596 448.585 39.286 446.787 39.196 C 447.132 39.291 447.511 39.18 447.871 39.462 C 448.356 39.841 448.919 40.167 449.445 40.518 C 447.677 41.336 446.045 40.932 445.93 40.086 C 445.84 41.965 444.468 42.403 443.252 42.397 Z" style="" transform="matrix(-1, 0, 0, -1, 890.565369, 72.082169)"/>
  <path d="M 454.592 32.229 C 454.114 32.231 453.673 32.358 453.456 32.448 C 453.456 32.448 455.412 32.882 455.574 34.659 C 454.09 31.843 452.47 35.247 452.47 35.247 C 452.808 35.131 453.775 34.786 454.422 34.931 C 454.861 35.033 455.292 35.558 455.274 35.552 C 454.222 35.893 452.549 42.058 452.832 42.559 C 453.087 42.943 453.341 42.812 453.593 42.617 C 453.717 41.309 454.696 35.578 455.894 36.04 C 455.894 36.04 455.894 36.04 455.894 36.04 C 455.994 36.086 456.091 36.166 456.096 36.287 C 456.105 36.519 455.992 36.897 456.018 37.16 C 456.079 37.771 456.172 37.983 456.303 38.197 C 456.619 37.964 456.922 37.12 456.984 36.686 C 457.268 36.849 457.721 37.225 458.09 38.626 C 458.284 37.314 458.005 36.277 457.087 35.817 C 457.485 35.59 458.847 35.386 459.058 36.024 C 459.264 34.875 458.179 34.818 456.969 34.891 C 457.2 34.813 457.195 34.288 457.438 34.054 C 457.764 33.737 457.964 33.621 458.316 33.329 C 457.128 32.648 456.47 33.449 456.392 34.152 C 456.332 32.588 455.41 32.224 454.592 32.229 Z" style=""/>
  <path d="M 419.269 31.017 C 418.588 31.02 417.959 31.168 417.652 31.272 C 417.652 31.272 420.437 31.781 420.668 33.854 C 418.553 30.565 416.245 34.543 416.245 34.543 C 416.727 34.406 418.104 34.002 419.024 34.173 C 419.653 34.29 420.268 34.905 420.241 34.896 C 418.741 35.295 416.357 42.493 416.762 43.078 C 417.123 43.525 417.484 43.372 417.846 43.146 C 418.023 41.619 419.417 34.926 421.125 35.466 C 421.125 35.466 421.125 35.466 421.125 35.466 C 421.268 35.52 421.404 35.612 421.412 35.754 C 421.426 36.025 421.265 36.467 421.301 36.774 C 421.391 37.486 421.519 37.735 421.707 37.984 C 422.157 37.712 422.588 36.729 422.676 36.219 C 423.079 36.41 423.726 36.85 424.255 38.486 C 424.531 36.953 424.133 35.744 422.825 35.206 C 423.392 34.943 425.856 36.278 426.156 37.022 C 426.451 35.68 424.38 34.039 422.656 34.126 C 422.987 34.034 423.35 34.142 423.695 33.868 C 424.16 33.5 424.7 33.183 425.204 32.842 C 423.51 32.047 421.945 32.44 421.835 33.262 C 421.749 31.436 420.434 31.011 419.269 31.017 Z" style=""/>
</svg>